<?xml version="1.0" encoding="utf-8"?>
<!-- Generator: Adobe Illustrator 13.0.0, SVG Export Plug-In . SVG Version: 6.00 Build 14948)  -->
<!DOCTYPE svg PUBLIC "-//W3C//DTD SVG 1.1//EN" "http://www.w3.org/Graphics/SVG/1.1/DTD/svg11.dtd">
<svg version="1.1" id="Layer_1" xmlns="http://www.w3.org/2000/svg" xmlns:xlink="http://www.w3.org/1999/xlink" x="0px" y="0px"
	 width="91.289px" height="90.301px" viewBox="0 0 91.289 90.301" enable-background="new 0 0 91.289 90.301" xml:space="preserve">
<g>
	<g>
		<path fill="#A6A7B8" d="M18.481,44.024h2.171c0.744,0,1.328,0.101,1.753,0.302c0.424,0.201,0.726,0.508,0.903,0.921
			c0.179,0.413,0.268,0.961,0.268,1.644v3.355c0,0.697-0.089,1.262-0.268,1.693c-0.178,0.433-0.475,0.756-0.893,0.973
			c-0.417,0.216-0.981,0.324-1.694,0.324h-2.24V44.024z M20.676,52.064c0.372,0,0.641-0.063,0.808-0.192
			c0.167-0.13,0.273-0.31,0.318-0.541c0.046-0.231,0.068-0.573,0.068-1.028v-3.525c0-0.41-0.026-0.721-0.079-0.934
			c-0.054-0.212-0.166-0.369-0.336-0.471c-0.171-0.104-0.438-0.154-0.803-0.154h-0.5v6.846H20.676z"/>
		<path fill="#A6A7B8" d="M29.479,44.024h1.797l1.842,9.212H31.56l-0.363-2.127h-1.604l-0.375,2.127h-1.581L29.479,44.024z
			 M31.014,50.041l-0.625-3.867l-0.626,3.867H31.014z"/>
		<path fill="#A6A7B8" d="M37.451,44.024h1.671v4.049l1.831-4.049h1.604l-1.763,4.105l1.945,5.106h-1.671l-1.537-4.186l-0.409,0.694
			v3.491h-1.671V44.024z"/>
		<path fill="#A6A7B8" d="M47.311,52.594c-0.409-0.512-0.613-1.26-0.613-2.246v-3.457c0-0.979,0.204-1.718,0.613-2.219
			c0.41-0.5,1.092-0.75,2.047-0.75c0.947,0,1.627,0.25,2.036,0.75c0.409,0.501,0.614,1.24,0.614,2.219v3.457
			c0,0.979-0.207,1.725-0.62,2.24s-1.089,0.773-2.03,0.773C48.402,53.361,47.721,53.105,47.311,52.594z M50.108,51.77
			c0.129-0.234,0.193-0.576,0.193-1.023v-4.242c0-0.447-0.063-0.785-0.188-1.012c-0.125-0.228-0.378-0.342-0.757-0.342
			s-0.633,0.115-0.762,0.348c-0.129,0.23-0.193,0.566-0.193,1.006v4.242c0,0.447,0.064,0.789,0.193,1.023s0.383,0.353,0.762,0.353
			C49.729,52.122,49.979,52.004,50.108,51.77z"/>
		<path fill="#A6A7B8" d="M57.558,45.265h-1.535v-1.24h4.72v1.24h-1.513v7.972h-1.672V45.265z"/>
		<path fill="#A6A7B8" d="M66.223,44.024h1.797l1.843,9.212h-1.558l-0.364-2.127h-1.604l-0.376,2.127h-1.58L66.223,44.024z
			 M67.758,50.041l-0.625-3.867l-0.625,3.867H67.758z"/>
	</g>
	<g>
		<g>
			<path fill="#A6A7B8" d="M28.681,68.357c-0.382,0-0.669-0.124-0.862-0.371c-0.193-0.249-0.324-0.713-0.393-1.393
				c-0.04-0.353-0.08-0.811-0.121-1.375c-0.477,0.143-0.955,0.292-1.438,0.448l-0.346,0.958c-0.068,0.184-0.117,0.314-0.144,0.393
				c-0.027,0.078-0.077,0.195-0.147,0.352c-0.071,0.156-0.133,0.27-0.184,0.342c-0.051,0.07-0.123,0.161-0.215,0.27
				c-0.091,0.109-0.185,0.188-0.279,0.234c-0.244,0.123-0.506,0.184-0.785,0.184s-0.505-0.1-0.678-0.301
				c-0.174-0.2-0.26-0.446-0.26-0.738c0-0.082,0.006-0.167,0.02-0.256c0.089-0.652,0.758-1.246,2.008-1.783
				c0.354-0.903,0.941-2.426,1.764-4.566c0.218-0.122,0.492-0.183,0.826-0.183c0.074,0,0.146,0,0.214,0c0.067,0,0.151,0,0.249,0
				c0.099,0,0.223,0.021,0.373,0.061c0.006,0.319,0.162,2.3,0.468,5.942c0.028,0.307,0.065,0.504,0.112,0.596
				c0.048,0.092,0.129,0.139,0.245,0.139c0.19,0,0.443-0.13,0.759-0.389c0.316-0.258,0.6-0.58,0.852-0.968l0.285,0.693l-0.244,0.326
				C30.046,67.896,29.354,68.357,28.681,68.357z M23.554,67.145c0,0.218,0.081,0.326,0.244,0.326c0.123,0,0.221-0.088,0.296-0.265
				c0.088-0.19,0.224-0.522,0.407-0.999C23.87,66.527,23.554,66.839,23.554,67.145z M27.06,62.344l-0.886,2.478
				c0.475-0.163,0.827-0.282,1.06-0.357L27.06,62.344z"/>
			<path fill="#A6A7B8" d="M34.311,60.698c0.167-0.078,0.367-0.116,0.602-0.116s0.41,0.033,0.525,0.102
				c-0.068,0.529-0.177,1.362-0.326,2.496c-0.313,2.371-0.469,3.678-0.469,3.919s0.102,0.362,0.306,0.362
				c0.177,0,0.36-0.11,0.55-0.331c0.19-0.222,0.363-0.583,0.521-1.086c0.19,0.184,0.322,0.384,0.396,0.602
				c-0.244,0.808-0.628,1.331-1.151,1.569c-0.238,0.115-0.461,0.174-0.672,0.174c-0.605,0-1.01-0.218-1.214-0.652
				c-0.354,0.441-0.805,0.662-1.354,0.662c-0.551,0-1.015-0.187-1.392-0.561c-0.377-0.373-0.565-0.866-0.565-1.478
				c0-0.89,0.262-1.601,0.784-2.13c0.523-0.531,1.187-0.796,1.987-0.796c0.021,0,0.041,0,0.063,0c0.277,0,0.539,0.041,0.783,0.122
				l0.307-2.567C34.037,60.873,34.145,60.777,34.311,60.698z M32.99,64.23c-0.434,0-0.778,0.164-1.033,0.494
				c-0.256,0.328-0.407,0.82-0.454,1.473c-0.007,0.061-0.01,0.119-0.01,0.173c0,0.333,0.079,0.599,0.239,0.795
				c0.16,0.197,0.365,0.296,0.616,0.296c0.429,0,0.751-0.303,0.969-0.907l0.265-2.19C33.357,64.274,33.161,64.23,32.99,64.23z"/>
			<path fill="#A6A7B8" d="M39.52,66.514c-0.215,0.549-0.521,1-0.918,1.35c-0.396,0.35-0.852,0.525-1.36,0.525
				c-0.51,0-0.892-0.168-1.146-0.505s-0.383-0.722-0.383-1.157c0-0.088,0.004-0.176,0.011-0.265l0.347-2.905
				c0.218-0.081,0.448-0.122,0.693-0.122c0.448,0,0.673,0.167,0.673,0.5c0,0.014-0.057,0.467-0.169,1.36s-0.168,1.412-0.168,1.555
				c0,0.387,0.187,0.58,0.561,0.58c0.319,0,0.588-0.18,0.806-0.539c0.38-0.652,0.58-1.391,0.601-2.213h-0.091
				c-0.286,0-0.504-0.064-0.652-0.193c-0.171-0.148-0.256-0.33-0.256-0.54s0.064-0.38,0.194-0.51
				c0.156-0.136,0.343-0.203,0.56-0.203c0.517,0,0.84,0.269,0.969,0.805c0.204-0.026,0.351-0.054,0.438-0.081v0.58l-0.377,0.062
				v0.173C39.844,65.382,39.732,65.963,39.52,66.514z M38.647,63.944c0,0.116,0.099,0.173,0.296,0.173c0.021,0,0.041,0,0.061,0
				c-0.047-0.183-0.119-0.275-0.214-0.275S38.647,63.877,38.647,63.944z"/>
			<path fill="#A6A7B8" d="M43.147,65.545c0.207-0.252,0.311-0.494,0.311-0.729s-0.063-0.395-0.188-0.48
				c-0.125-0.084-0.264-0.127-0.412-0.127c-0.32,0-0.6,0.179-0.842,0.535c-0.241,0.357-0.361,0.781-0.361,1.274
				s0.117,0.859,0.352,1.101s0.525,0.361,0.871,0.361c0.511,0,0.999-0.176,1.469-0.529c0.469-0.354,0.849-0.815,1.141-1.387
				c0.149,0.143,0.285,0.32,0.408,0.531c-0.225,0.51-0.622,1.008-1.193,1.498c-0.285,0.237-0.623,0.432-1.014,0.58
				c-0.391,0.15-0.793,0.225-1.207,0.225c-0.68,0-1.217-0.207-1.61-0.622c-0.422-0.448-0.632-1.022-0.632-1.722
				c0-0.7,0.262-1.312,0.789-1.835c0.527-0.522,1.156-0.785,1.891-0.785c0.523,0,0.948,0.114,1.274,0.341
				c0.325,0.229,0.492,0.536,0.499,0.924c0,0.523-0.209,0.947-0.627,1.273c-0.417,0.326-0.99,0.555-1.717,0.683l-0.143-0.601
				C42.626,65.966,42.939,65.796,43.147,65.545z"/>
			<path fill="#A6A7B8" d="M47.963,67.195l0.244-2.273c0-0.184-0.047-0.336-0.142-0.458c-0.096-0.122-0.253-0.183-0.475-0.183
				c-0.221,0-0.407,0.096-0.56,0.291c-0.154,0.192-0.25,0.436-0.291,0.728c-0.244,1.862-0.374,2.874-0.388,3.038h-1.376l0.561-4.801
				c0.286-0.075,0.503-0.112,0.652-0.112c0.455,0,0.693,0.166,0.715,0.499c0.332-0.325,0.73-0.489,1.196-0.489
				s0.831,0.116,1.096,0.347c0.265,0.231,0.397,0.523,0.397,0.877c0,0.096-0.021,0.275-0.061,0.539
				c-0.157,1.033-0.235,1.635-0.235,1.805c0,0.313,0.106,0.469,0.316,0.469c0.462,0,0.812-0.481,1.05-1.447
				c0.23,0.244,0.37,0.438,0.418,0.582c-0.36,1.195-0.985,1.793-1.876,1.793c-0.421,0-0.733-0.129-0.938-0.387
				C48.065,67.753,47.963,67.48,47.963,67.195z"/>
			<path fill="#A6A7B8" d="M52.651,61.244c0,0.041-0.091,0.771-0.275,2.19h1.499v0.785h-1.601l-0.03,0.255
				c0.794,0.666,1.192,1.393,1.192,2.181c0,0.618-0.158,1.063-0.474,1.335c-0.316,0.272-0.695,0.408-1.137,0.408
				c-0.442,0-0.765-0.117-0.969-0.352c-0.203-0.234-0.305-0.518-0.305-0.852c0-0.074,0.006-0.156,0.02-0.244l0.316-2.711
				l-0.041-0.021h-0.826c-0.006-0.067-0.01-0.179-0.01-0.331s0.03-0.304,0.092-0.454h0.877l0.326-2.772
				c0.143-0.054,0.332-0.08,0.57-0.08C52.393,60.582,52.651,60.802,52.651,61.244z M52.754,66.646c0-0.468-0.205-0.931-0.611-1.386
				c-0.123,1.012-0.185,1.597-0.185,1.753c0,0.306,0.099,0.458,0.296,0.458c0.143,0,0.262-0.066,0.356-0.198
				C52.706,67.141,52.754,66.931,52.754,66.646z"/>
			<path fill="#A6A7B8" d="M58.399,63.537c-0.278,2.201-0.417,3.373-0.417,3.516c0,0.272,0.098,0.408,0.295,0.408
				c0.176,0,0.368-0.121,0.576-0.362c0.207-0.241,0.371-0.603,0.494-1.085c0.225,0.244,0.36,0.436,0.408,0.57
				c-0.156,0.66-0.405,1.125-0.744,1.396c-0.34,0.271-0.689,0.408-1.05,0.408c-0.592,0-0.989-0.229-1.193-0.684
				c-0.353,0.455-0.825,0.684-1.417,0.684c-0.488,0-0.865-0.123-1.131-0.367c-0.265-0.245-0.397-0.564-0.397-0.959
				c0-0.094,0.017-0.261,0.051-0.498c0.156-1.265,0.275-2.27,0.357-3.018c0.21-0.074,0.403-0.112,0.581-0.112
				c0.176,0,0.309,0.007,0.396,0.021c0.089,0.014,0.174,0.064,0.256,0.153c0.081,0.089,0.122,0.214,0.122,0.377l-0.337,2.599
				c-0.013,0.082-0.02,0.156-0.02,0.225c0,0.4,0.184,0.602,0.551,0.602c0.338,0,0.621-0.166,0.845-0.5
				c0-0.074,0.007-0.193,0.021-0.356l0.336-2.712c0.048-0.115,0.15-0.211,0.307-0.289c0.155-0.078,0.352-0.118,0.586-0.118
				S58.284,63.469,58.399,63.537z"/>
			<path fill="#A6A7B8" d="M62.028,64.77c0-0.298-0.138-0.447-0.413-0.447s-0.494,0.176-0.657,0.529
				c0.733,0.578,1.101,1.227,1.101,1.946c0,0.524-0.146,0.921-0.438,1.192c-0.293,0.272-0.66,0.408-1.102,0.408
				s-0.764-0.138-0.968-0.412c-0.204-0.275-0.306-0.624-0.306-1.045c0-0.129,0.003-0.225,0.01-0.286l0.356-3.108
				c0.245-0.074,0.493-0.112,0.744-0.112c0.414,0,0.622,0.153,0.622,0.459v0.021c0.271-0.319,0.618-0.479,1.039-0.479
				c0.307,0,0.543,0.07,0.714,0.209c0.169,0.14,0.255,0.325,0.255,0.556s-0.087,0.42-0.26,0.565c-0.174,0.146-0.399,0.22-0.678,0.22
				c-0.015,0-0.027,0-0.041,0C62.021,64.909,62.028,64.838,62.028,64.77z M60.785,65.564c-0.123,0.979-0.185,1.473-0.185,1.479
				c0,0.285,0.116,0.428,0.347,0.428c0.299,0,0.448-0.24,0.448-0.723C61.396,66.354,61.192,65.959,60.785,65.564z"/>
			<path fill="#A6A7B8" d="M66.059,65.545c0.207-0.252,0.311-0.494,0.311-0.729s-0.063-0.395-0.188-0.48
				c-0.127-0.084-0.264-0.127-0.414-0.127c-0.318,0-0.599,0.179-0.84,0.535c-0.241,0.357-0.362,0.781-0.362,1.274
				s0.118,0.859,0.353,1.101s0.523,0.361,0.871,0.361c0.509,0,0.998-0.176,1.467-0.529s0.85-0.815,1.142-1.387
				c0.149,0.143,0.286,0.32,0.407,0.531c-0.223,0.51-0.62,1.008-1.191,1.498c-0.285,0.237-0.623,0.432-1.014,0.58
				c-0.392,0.15-0.794,0.225-1.209,0.225c-0.68,0-1.215-0.207-1.609-0.622c-0.422-0.448-0.633-1.022-0.633-1.722
				c0-0.7,0.264-1.312,0.79-1.835c0.527-0.522,1.157-0.785,1.891-0.785c0.523,0,0.948,0.114,1.274,0.341
				c0.326,0.229,0.492,0.536,0.5,0.924c0,0.523-0.209,0.947-0.627,1.273s-0.991,0.555-1.718,0.683l-0.144-0.601
				C65.537,65.966,65.852,65.796,66.059,65.545z"/>
		</g>
	</g>
	<g>
		<path fill="#A6A7B8" d="M39.5,73.795c-0.043,0.029-0.197,0.078-0.465,0.146c-0.215,0.063-0.325,0.098-0.329,0.102v-0.654
			c0.169-0.059,0.354-0.141,0.556-0.244c0.2-0.104,0.348-0.21,0.441-0.32h0.678v5.14H39.5V73.795z"/>
		<path fill="#A6A7B8" d="M42.592,77.707c-0.205-0.218-0.312-0.542-0.319-0.975v-0.076h0.844c0,0.246,0.03,0.422,0.092,0.527
			s0.181,0.158,0.358,0.158c0.165,0,0.28-0.079,0.346-0.238c0.065-0.158,0.099-0.432,0.099-0.821v-0.608
			c-0.06,0.102-0.15,0.18-0.273,0.234c-0.122,0.055-0.269,0.082-0.438,0.082c-0.719,0-1.079-0.503-1.079-1.51
			c0-0.537,0.106-0.957,0.32-1.26c0.215-0.303,0.554-0.453,1.019-0.453c0.458,0,0.796,0.148,1.016,0.447s0.33,0.701,0.33,1.209v1.82
			c0,0.559-0.101,0.996-0.301,1.314c-0.202,0.316-0.549,0.476-1.045,0.476C43.12,78.034,42.798,77.925,42.592,77.707z
			 M44.011,75.045v-0.799c0-0.25-0.033-0.446-0.099-0.59c-0.065-0.145-0.183-0.217-0.353-0.217c-0.169,0-0.286,0.078-0.352,0.232
			s-0.099,0.379-0.099,0.676c0,0.232,0.008,0.412,0.023,0.543c0.014,0.128,0.054,0.232,0.119,0.313
			c0.065,0.079,0.17,0.12,0.314,0.12C43.757,75.324,43.904,75.231,44.011,75.045z"/>
		<path fill="#A6A7B8" d="M46.449,77.65c-0.188-0.261-0.281-0.646-0.281-1.158h0.856c0,0.291,0.032,0.512,0.096,0.66
			c0.063,0.147,0.188,0.222,0.374,0.222c0.139,0,0.243-0.046,0.311-0.136c0.068-0.092,0.111-0.215,0.13-0.369
			c0.02-0.154,0.028-0.369,0.028-0.644c0-0.339-0.031-0.588-0.095-0.749c-0.063-0.16-0.194-0.241-0.394-0.241
			c-0.119,0-0.219,0.04-0.301,0.121c-0.083,0.079-0.143,0.19-0.182,0.329h-0.754l0.051-2.861h2.309v0.787h-1.573l-0.051,1.237
			c0.071-0.081,0.175-0.146,0.311-0.194c0.136-0.048,0.284-0.072,0.444-0.072c0.363,0,0.634,0.139,0.809,0.416
			c0.176,0.276,0.264,0.667,0.264,1.17c0,0.394-0.037,0.727-0.111,0.997c-0.073,0.271-0.208,0.483-0.402,0.64
			c-0.195,0.157-0.47,0.235-0.825,0.235C46.975,78.04,46.639,77.91,46.449,77.65z"/>
		<path fill="#A6A7B8" d="M51.364,73.498h-1.39v-0.674h2.252v0.533l-1.04,4.606h-0.851L51.364,73.498z"/>
	</g>
	<g>
		<path fill="#A6A7B8" d="M85.354,38.716V24.673c-0.028-1.579-0.996-3.244-2.353-4.053L47.852,0.563l0,0
			C47.16,0.172,46.332,0.002,45.507,0c-0.829,0.002-1.659,0.172-2.351,0.563L8.07,20.619c-1.357,0.81-2.322,2.475-2.353,4.054
			v14.043H0v19.313l5.718,5.107v2.494c0.03,1.578,0.998,3.242,2.353,4.051L43.222,89.74c0.69,0.39,1.519,0.558,2.346,0.561
			c0.828-0.003,1.655-0.171,2.347-0.563l35.09-20.055c1.355-0.811,2.321-2.475,2.35-4.053v-2.313l5.92-5.289h0.016V38.716H85.354z
			 M7.038,24.673c-0.029-0.98,0.822-2.448,1.687-2.907L43.813,1.712c0.418-0.245,1.056-0.394,1.694-0.392
			c0.636-0.002,1.271,0.145,1.689,0.389l35.15,20.059c0.866,0.459,1.718,1.925,1.688,2.905v14.043h-2.789V26.648
			c-0.014-1.306-0.865-2.771-1.992-3.43L47.496,5.096c-0.57-0.324-1.279-0.473-1.986-0.473c-0.713,0-1.423,0.148-1.992,0.475
			l-31.7,18.12c-1.126,0.659-1.975,2.125-1.992,3.431v12.067H7.038V24.673z M79.084,38.716L67.662,24.469l-4.725,8.369l5.358-0.941
			l-4.487,6.819H46.075L64.77,25.832L54.477,12.621l-6.007,9.967l7.604-1.504L44.861,32.791l8.603-2.398l-7.685,8.323H31.748
			l18.969-22.921L37.738,28.864l-1.598-2.187l-3.826,5.111l4.281-0.59l-4.908,7.517h-8.555l10.022-10.274l-8.721,6.322l-3.056-1.598
			l0.895,5.55h-6.34l4.424-5.046l-8.863,5.046h-1.009V26.648c-0.015-1.007,0.778-2.371,1.659-2.858L43.846,5.671
			c0.434-0.251,1.048-0.39,1.664-0.388c0.612-0.002,1.225,0.137,1.657,0.387l0.166-0.287L47.169,5.67l31.759,18.121
			c0.881,0.486,1.674,1.851,1.658,2.857v12.067H79.084z M1.318,40.035h88.65v16.674H1.318V40.035z M10.485,58.029h70.101v5.625
			c0.016,1.008-0.775,2.372-1.658,2.858l-31.703,18.12c-0.434,0.248-1.048,0.386-1.66,0.385c-0.614,0.001-1.228-0.136-1.661-0.383
			L12.146,66.51c-0.882-0.484-1.675-1.848-1.66-2.855V58.029z M82.348,68.535L47.26,88.592c-0.42,0.242-1.055,0.391-1.692,0.389
			c-0.637,0.002-1.272-0.146-1.692-0.387L8.727,68.535c-0.866-0.459-1.718-1.926-1.688-2.904v-7.602h2.787v5.625
			c0.018,1.307,0.866,2.77,1.993,3.43l31.76,18.123c0.568,0.322,1.278,0.469,1.986,0.471c0.707-0.002,1.419-0.149,1.988-0.471
			l31.702-18.121c1.128-0.662,1.978-2.125,1.991-3.432v-5.625h2.789v7.602C84.064,66.609,83.213,68.077,82.348,68.535z"/>
	</g>
</g>
</svg>
