<?xml version="1.0" encoding="utf-8"?>
<!-- Generator: Adobe Illustrator 13.0.0, SVG Export Plug-In . SVG Version: 6.00 Build 14948)  -->
<!DOCTYPE svg PUBLIC "-//W3C//DTD SVG 1.1//EN" "http://www.w3.org/Graphics/SVG/1.1/DTD/svg11.dtd">
<svg version="1.1" id="Layer_1" xmlns="http://www.w3.org/2000/svg" xmlns:xlink="http://www.w3.org/1999/xlink" x="0px" y="0px"
	 width="93.338px" height="94.575px" viewBox="0 0 93.338 94.575" enable-background="new 0 0 93.338 94.575" xml:space="preserve">
<g>
	<g>
		<g>
			<path fill="#A6A7B8" d="M3.145,28.298c-0.055,0.039-0.258,0.103-0.609,0.192c-0.285,0.084-0.43,0.128-0.436,0.134v-0.861
				c0.223-0.077,0.467-0.185,0.732-0.321c0.264-0.136,0.457-0.277,0.58-0.422h0.895v6.768H3.145V28.298z"/>
			<path fill="#A6A7B8" d="M7.219,33.45c-0.271-0.287-0.412-0.715-0.422-1.283v-0.1h1.111c0,0.322,0.039,0.555,0.121,0.693
				c0.08,0.139,0.236,0.209,0.471,0.209c0.217,0,0.369-0.105,0.457-0.313c0.086-0.209,0.129-0.569,0.129-1.082v-0.802
				c-0.078,0.133-0.199,0.236-0.359,0.309c-0.162,0.072-0.354,0.109-0.576,0.109c-0.947,0-1.422-0.664-1.422-1.989
				c0-0.708,0.143-1.261,0.422-1.659c0.281-0.398,0.729-0.598,1.342-0.598c0.602,0,1.047,0.197,1.336,0.59
				c0.291,0.393,0.436,0.923,0.436,1.592v2.398c0,0.735-0.133,1.312-0.396,1.729c-0.266,0.417-0.723,0.626-1.375,0.626
				C7.913,33.879,7.489,33.737,7.219,33.45z M9.086,29.944v-1.053c0-0.328-0.043-0.588-0.129-0.777
				C8.87,27.925,8.715,27.83,8.493,27.83s-0.377,0.103-0.463,0.306c-0.088,0.203-0.131,0.5-0.131,0.89
				c0,0.308,0.01,0.544,0.029,0.715S8,30.047,8.088,30.153c0.086,0.105,0.225,0.159,0.412,0.159
				C8.752,30.312,8.948,30.19,9.086,29.944z"/>
			<path fill="#A6A7B8" d="M12.299,33.375c-0.248-0.343-0.371-0.852-0.371-1.524h1.127c0,0.384,0.041,0.673,0.125,0.869
				c0.084,0.194,0.248,0.291,0.492,0.291c0.186,0,0.32-0.059,0.41-0.18c0.09-0.119,0.146-0.281,0.172-0.484
				c0.023-0.203,0.037-0.486,0.037-0.848c0-0.445-0.041-0.773-0.125-0.986c-0.084-0.211-0.258-0.317-0.52-0.317
				c-0.154,0-0.287,0.053-0.395,0.159c-0.109,0.105-0.189,0.25-0.24,0.434h-0.994l0.066-3.768h3.043v1.035h-2.072l-0.066,1.63
				c0.094-0.105,0.23-0.19,0.408-0.255s0.373-0.096,0.586-0.096c0.479,0,0.834,0.184,1.064,0.547
				c0.232,0.365,0.348,0.879,0.348,1.542c0,0.519-0.049,0.956-0.146,1.312c-0.098,0.357-0.275,0.639-0.531,0.844
				c-0.256,0.206-0.617,0.31-1.086,0.31C12.991,33.888,12.545,33.717,12.299,33.375z"/>
			<path fill="#A6A7B8" d="M18.77,27.905h-1.83V27.02h2.967v0.701l-1.371,6.066h-1.119L18.77,27.905z"/>
		</g>
		<g>
			<path fill="#A6A7B8" d="M74.096,32.969l1.672-2.582l0.158-0.242c0.189-0.301,0.33-0.553,0.422-0.756s0.139-0.434,0.139-0.689
				c0-0.523-0.186-0.786-0.553-0.786c-0.256,0-0.436,0.098-0.535,0.292c-0.1,0.195-0.15,0.457-0.15,0.786v0.284h-1.127v-0.301
				c0-0.635,0.141-1.133,0.426-1.492c0.283-0.358,0.734-0.539,1.354-0.539c0.568,0,0.998,0.154,1.291,0.461
				c0.293,0.306,0.438,0.74,0.438,1.303c0,0.262-0.035,0.504-0.107,0.727c-0.072,0.224-0.158,0.422-0.26,0.594
				c-0.1,0.172-0.256,0.418-0.467,0.735l-1.389,2.097h2.057v0.928h-3.367V32.969z"/>
			<path fill="#A6A7B8" d="M79.584,33.354c-0.301-0.357-0.451-0.833-0.451-1.43v-3c0-0.617,0.146-1.103,0.439-1.453
				s0.736-0.527,1.332-0.527c0.586,0,1.023,0.178,1.316,0.531s0.439,0.837,0.439,1.449v3c0,0.597-0.15,1.072-0.451,1.43
				c-0.301,0.355-0.736,0.534-1.305,0.534C80.327,33.888,79.885,33.709,79.584,33.354z M81.491,31.909v-2.967
				c0-0.295-0.039-0.536-0.117-0.723c-0.078-0.188-0.234-0.281-0.469-0.281c-0.238,0-0.398,0.092-0.475,0.277
				c-0.08,0.184-0.117,0.426-0.117,0.727v2.967c0,0.656,0.197,0.984,0.592,0.984C81.295,32.893,81.491,32.565,81.491,31.909z"/>
			<path fill="#A6A7B8" d="M85.668,28.298c-0.055,0.039-0.258,0.103-0.609,0.192c-0.285,0.084-0.43,0.128-0.436,0.134v-0.861
				c0.223-0.077,0.467-0.185,0.732-0.321c0.264-0.136,0.457-0.277,0.58-0.422h0.895v6.768h-1.162V28.298z"/>
			<path fill="#A6A7B8" d="M91.116,27.905h-1.83V27.02h2.967v0.701l-1.369,6.066h-1.119L91.116,27.905z"/>
		</g>
		<g>
			<g>
				<path fill="#A6A7B8" d="M0,70.286h3.723c1.416,0,2.506,0.285,3.268,0.855c0.766,0.572,1.146,1.546,1.146,2.924
					c0,1.898-0.727,2.96-2.178,3.184c1.736,0.336,2.605,1.576,2.605,3.725c0.012,1.439-0.334,2.531-1.043,3.275
					c-0.707,0.746-1.762,1.117-3.164,1.117H0V70.286z M3.688,76.448c0.793,0,1.336-0.176,1.629-0.53
					c0.291-0.354,0.436-0.928,0.436-1.722c0-0.771-0.188-1.295-0.566-1.574s-1.008-0.419-1.891-0.419H2.737v4.245H3.688z
					 M3.799,83.43c0.807,0,1.365-0.192,1.676-0.577s0.465-1.018,0.465-1.899c0-0.906-0.172-1.566-0.512-1.982
					c-0.342-0.416-0.916-0.624-1.723-0.624H2.737v5.083H3.799z"/>
				<path fill="#A6A7B8" d="M20.053,70.286h2.941l3.018,15.08h-2.553l-0.596-3.481h-2.625l-0.613,3.481h-2.59L20.053,70.286z
					 M22.567,80.135l-1.023-6.332l-1.025,6.332H22.567z"/>
				<path fill="#A6A7B8" d="M34.967,70.286h2.736v6.628l2.998-6.628h2.625l-2.887,6.721l3.184,8.359h-2.736l-2.514-6.851
					l-0.67,1.136v5.715h-2.736V70.286z"/>
				<path fill="#A6A7B8" d="M52.321,70.286h6.33v1.936h-3.594v4.338h2.83v1.918h-2.83v5.009h3.629v1.88h-6.365V70.286z"/>
				<path fill="#A6A7B8" d="M67.737,70.286h3.631c1.588,0,2.773,0.301,3.555,0.902c0.783,0.603,1.174,1.636,1.174,3.101
					c0,0.956-0.141,1.735-0.418,2.336c-0.281,0.603-0.762,1.04-1.443,1.313l2.104,7.428h-2.756l-1.807-6.906h-1.303v6.906h-2.736
					V70.286z M71.348,76.747c0.783,0,1.338-0.18,1.666-0.541c0.33-0.359,0.494-0.949,0.494-1.769c0-0.794-0.146-1.371-0.438-1.731
					c-0.293-0.359-0.816-0.539-1.574-0.539h-1.023v4.58H71.348z"/>
				<path fill="#A6A7B8" d="M87.696,79.614l-3.053-9.328h2.568l1.863,5.977l1.748-5.977h2.516l-3.018,9.328v5.752h-2.625V79.614z"/>
			</g>
		</g>
		<g>
			<path fill="#A6A7B8" d="M23.743,90.514h1.646v0.504h-0.92v1.167h0.752v0.51h-0.752v1.825h-0.727V90.514z"/>
			<path fill="#A6A7B8" d="M27.762,90.514h0.965c0.422,0,0.736,0.08,0.945,0.239c0.207,0.159,0.311,0.435,0.311,0.823
				c0,0.254-0.037,0.461-0.111,0.621s-0.201,0.275-0.383,0.348l0.559,1.975h-0.73l-0.48-1.836h-0.348v1.836h-0.727V90.514z
				 M28.723,92.229c0.207,0,0.355-0.047,0.441-0.143c0.088-0.096,0.131-0.252,0.131-0.47c0-0.212-0.039-0.364-0.115-0.46
				c-0.078-0.096-0.217-0.145-0.418-0.145h-0.273v1.217H28.723z"/>
			<path fill="#A6A7B8" d="M32.516,90.514h1.68v0.514h-0.953v1.152h0.752v0.51h-0.752v1.33h0.965v0.5h-1.691V90.514z"/>
			<path fill="#A6A7B8" d="M36.805,94.268c-0.18-0.205-0.277-0.51-0.293-0.916l0.627-0.123c0.01,0.254,0.051,0.447,0.121,0.58
				c0.072,0.135,0.184,0.201,0.334,0.201c0.113,0,0.195-0.035,0.25-0.102c0.055-0.067,0.082-0.158,0.082-0.275
				c0-0.158-0.035-0.291-0.105-0.399c-0.072-0.108-0.184-0.231-0.336-0.366l-0.504-0.44c-0.154-0.139-0.271-0.28-0.348-0.428
				c-0.078-0.146-0.117-0.327-0.117-0.542c0-0.316,0.094-0.561,0.277-0.731c0.186-0.171,0.439-0.257,0.768-0.257
				c0.342,0,0.588,0.098,0.736,0.294s0.234,0.461,0.258,0.794l-0.629,0.109c-0.01-0.215-0.039-0.379-0.086-0.49
				c-0.049-0.111-0.143-0.168-0.279-0.168c-0.113,0-0.201,0.035-0.266,0.104c-0.064,0.069-0.096,0.16-0.096,0.271
				c0,0.129,0.025,0.236,0.078,0.322s0.135,0.18,0.248,0.281l0.5,0.44c0.188,0.169,0.334,0.343,0.439,0.524s0.158,0.395,0.158,0.638
				c0,0.191-0.043,0.361-0.127,0.509c-0.084,0.148-0.201,0.266-0.354,0.35c-0.15,0.084-0.326,0.127-0.523,0.127
				C37.256,94.575,36.985,94.471,36.805,94.268z"/>
			<path fill="#A6A7B8" d="M41.042,90.514h0.727v1.671h0.816v-1.671h0.732v4.006h-0.732v-1.811h-0.816v1.811h-0.727V90.514z"/>
			<path fill="#A6A7B8" d="M49.088,90.514h0.988c0.377,0,0.666,0.075,0.869,0.227c0.203,0.152,0.303,0.41,0.303,0.776
				c0,0.505-0.191,0.786-0.578,0.847c0.463,0.088,0.693,0.418,0.693,0.988c0.004,0.383-0.09,0.673-0.277,0.871
				c-0.188,0.197-0.469,0.297-0.842,0.297h-1.156V90.514z M50.067,92.151c0.211,0,0.357-0.047,0.434-0.141
				c0.078-0.096,0.115-0.246,0.115-0.459c0-0.203-0.049-0.344-0.15-0.417c-0.1-0.074-0.268-0.112-0.502-0.112h-0.148v1.129H50.067z
				 M50.098,94.004c0.213,0,0.361-0.051,0.443-0.152c0.084-0.102,0.125-0.271,0.125-0.506c0-0.239-0.047-0.415-0.137-0.525
				s-0.242-0.166-0.457-0.166h-0.258v1.35H50.098z"/>
			<path fill="#A6A7B8" d="M53.821,90.514h0.965c0.422,0,0.736,0.08,0.945,0.239c0.207,0.159,0.311,0.435,0.311,0.823
				c0,0.254-0.037,0.461-0.111,0.621s-0.201,0.275-0.383,0.348l0.559,1.975h-0.732l-0.479-1.836h-0.346v1.836h-0.729V90.514z
				 M54.782,92.229c0.207,0,0.354-0.047,0.441-0.143s0.131-0.252,0.131-0.47c0-0.212-0.037-0.364-0.115-0.46
				s-0.217-0.145-0.418-0.145h-0.271v1.217H54.782z"/>
			<path fill="#A6A7B8" d="M58.575,90.514h1.682v0.514h-0.955v1.152h0.752v0.51h-0.752v1.33h0.965v0.5h-1.691V90.514z"/>
			<path fill="#A6A7B8" d="M63.268,90.514h0.781l0.801,4.006h-0.676l-0.16-0.926h-0.697l-0.162,0.926h-0.688L63.268,90.514z
				 M63.936,93.129l-0.271-1.682l-0.273,1.682H63.936z"/>
			<path fill="#A6A7B8" d="M67.229,90.514h0.945c0.322,0,0.576,0.043,0.762,0.13c0.184,0.088,0.314,0.222,0.393,0.401
				s0.117,0.418,0.117,0.715v1.459c0,0.303-0.039,0.549-0.117,0.736s-0.207,0.328-0.387,0.424c-0.184,0.094-0.428,0.141-0.738,0.141
				h-0.975V90.514z M68.184,94.01c0.162,0,0.279-0.028,0.35-0.084c0.074-0.057,0.119-0.135,0.141-0.234
				c0.02-0.102,0.029-0.25,0.029-0.448V91.71c0-0.179-0.012-0.313-0.035-0.405c-0.023-0.093-0.07-0.161-0.146-0.205
				c-0.074-0.045-0.189-0.067-0.348-0.067h-0.219v2.978H68.184z"/>
		</g>
		<g>
			<path fill="#A6A7B8" d="M35.862,59.481c-0.035,0-0.068-0.003-0.1-0.008C35.793,59.478,35.827,59.481,35.862,59.481z
				 M59.735,60.793c0.002,0,0.004,0,0.004,0s-0.004,0-0.008,0H59.735z M58.956,30.208l0.143,1.757l-0.621-7.683l0.43,0.429
				l-0.365,0.364l0.139,1.715l16.678-16.68c0.736-0.737,0.736-1.927,0-2.665l-6.893-6.893c-0.738-0.736-1.928-0.736-2.666,0
				L50.862,15.489l4.838,4.162l-3.572-3.572l4.383-4.384l7.705,7.704l-4.383,4.385l-1.625-1.625c0.012,0.023,0.021,0.047,0.031,0.07
				c-0.035-0.094-0.08-0.183-0.125-0.27c-0.012-0.033-0.027-0.066-0.043-0.097c-0.055-0.107-0.121-0.188-0.189-0.259
				c-0.301-0.303-0.938-0.883-1.463-1.336l-7.533-6.48c-0.396-0.338-0.887-0.492-1.369-0.492c-0.477,0-0.959,0.148-1.352,0.477
				l-7.732,6.502c-0.277,0.234-0.549,0.489-0.779,0.723c-0.113,0.118-0.217,0.23-0.305,0.336c-0.09,0.107-0.16,0.197-0.232,0.324
				c-0.037,0.064-0.066,0.144-0.084,0.229v-0.001c-0.051,0.087-0.096,0.177-0.137,0.274l-1.627,1.625l-4.385-4.385l7.707-7.704
				l4.383,4.382l-2.367,2.371l3.58-3.013L29.301,0.552c-0.738-0.736-1.928-0.736-2.664,0l-6.896,6.893
				c-0.734,0.738-0.734,1.928,0,2.665l16.682,16.681l0.139-1.716l-0.365-0.364l0.428-0.429l-0.738,9.144l0.26-3.218L19.741,46.611
				c-0.734,0.737-0.734,1.927,0,2.665l6.896,6.895c0.736,0.734,1.926,0.734,2.664,0l5.164-5.166l-0.633,7.855
				c-0.004,0.05-0.008,0.102-0.008,0.15c0,0.487,0.195,0.939,0.52,1.264c0.24,0.24,0.555,0.41,0.902,0.482
				c0.006,0,0.012,0.001,0.018,0.002c0.051,0.01,0.104,0.018,0.154,0.025c0.012,0,0.02,0,0.031,0.002
				c0.051,0.004,0.104,0.006,0.156,0.008c0.004,0,0.008,0,0.01,0h23.869c0.004,0,0.006,0,0.01,0
				c0.053-0.002,0.104-0.004,0.156-0.008c0.01-0.002,0.021-0.002,0.031-0.002c0.053-0.008,0.104-0.016,0.152-0.023
				c0.008-0.003,0.014-0.004,0.021-0.004c0.346-0.072,0.66-0.242,0.9-0.482c0.326-0.324,0.52-0.776,0.518-1.264
				c0-0.051,0-0.101-0.006-0.149l-0.703-8.747l0.07,0.891l5.164,5.166c0.738,0.733,1.928,0.733,2.666,0l6.893-6.895
				c0.736-0.738,0.736-1.928,0-2.665L58.956,30.208z M66.727,1.478c0.111-0.11,0.256-0.165,0.406-0.166
				c0.15,0.001,0.293,0.056,0.406,0.166l6.893,6.895c0.111,0.11,0.166,0.255,0.166,0.405s-0.055,0.295-0.166,0.406l-3.979,3.979
				L62.75,5.457L66.727,1.478z M57.438,10.768l4.385-4.385l7.705,7.706l-4.385,4.384L57.438,10.768z M20.668,9.184
				c-0.111-0.111-0.166-0.256-0.166-0.406s0.055-0.295,0.166-0.405l6.895-6.895c0.111-0.11,0.254-0.165,0.404-0.166
				c0.15,0.001,0.297,0.056,0.406,0.166l3.977,3.979l-7.705,7.706L20.668,9.184z M25.573,14.089l7.707-7.706l4.383,4.384
				l-7.705,7.705L25.573,14.089z M59.833,32.938l4.383,4.383l-4.336,4.338l-0.654-8.113L59.833,32.938z M47.008,14.774
				c0.119-0.103,0.309-0.168,0.508-0.168c0.201,0,0.393,0.068,0.514,0.176l7.133,6.137H39.702L47.008,14.774z M35.268,32.938
				l0.607,0.607l-0.654,8.113l-4.338-4.338L35.268,32.938z M28.374,55.243c-0.111,0.111-0.256,0.166-0.406,0.167
				c-0.15-0.001-0.293-0.056-0.404-0.167l-6.895-6.894c-0.111-0.112-0.166-0.256-0.166-0.406c0-0.151,0.055-0.294,0.166-0.406
				l3.977-3.978l7.705,7.705L28.374,55.243z M35.042,43.875l-0.412,5.112l-1.352,1.351l-7.705-7.705l4.385-4.385l5.125,5.125
				L35.042,43.875z M50.991,59.481h-6.664V49.454c0.002-0.165,0.064-0.313,0.17-0.426c0.107-0.113,0.248-0.179,0.404-0.179h5.518
				c0.156,0,0.297,0.065,0.404,0.179c0.105,0.112,0.168,0.261,0.168,0.426V59.481z M59.831,59.346
				c-0.084,0.081-0.195,0.135-0.346,0.135h-7.182V49.454c-0.002-1.099-0.844-1.986-1.885-1.988h-5.518
				c-1.041,0.002-1.881,0.89-1.885,1.988v10.027h-7.154h-0.246c-0.033,0-0.066-0.003-0.1-0.008c-0.002,0-0.004-0.002-0.008-0.002
				c-0.098-0.02-0.174-0.064-0.238-0.125c-0.08-0.084-0.133-0.193-0.135-0.336c0-0.015,0.002-0.029,0.002-0.042l2.916-36.118
				c0.012-0.155,0.094-0.315,0.223-0.435c0.131-0.12,0.295-0.187,0.451-0.187h17.646c0.156-0.002,0.322,0.066,0.451,0.187
				c0.131,0.119,0.209,0.279,0.223,0.435l2.914,36.115c0.002,0.016,0.002,0.03,0.002,0.045
				C59.963,59.153,59.913,59.262,59.831,59.346z M60.471,48.988l-0.412-5.113l-0.039-0.501l5.123-5.125l4.385,4.385l-7.705,7.705
				L60.471,48.988z M74.432,48.349l-6.893,6.894c-0.113,0.111-0.256,0.166-0.406,0.166s-0.295-0.055-0.406-0.166l-3.977-3.979
				l7.703-7.705l3.979,3.978c0.111,0.112,0.166,0.255,0.166,0.406C74.598,48.093,74.543,48.237,74.432,48.349z"/>
		</g>
	</g>
</g>
</svg>
