<?xml version="1.0" encoding="utf-8"?>
<!-- Generator: Adobe Illustrator 13.0.0, SVG Export Plug-In . SVG Version: 6.00 Build 14948)  -->
<!DOCTYPE svg PUBLIC "-//W3C//DTD SVG 1.1//EN" "http://www.w3.org/Graphics/SVG/1.1/DTD/svg11.dtd">
<svg version="1.1" id="Layer_1" xmlns="http://www.w3.org/2000/svg" xmlns:xlink="http://www.w3.org/1999/xlink" x="0px" y="0px"
	 width="170px" height="130px" viewBox="-39.98 -20.35 170 130" enable-background="new -39.98 -20.35 170 130"
	 xml:space="preserve">
<g>
	<g>
		<g>
			<g>
				<path fill="#A6A7B8" d="M-1.487,77.296V11.418h96.975V76.9v0.396H-1.487L-1.487,77.296z M95.094,76.902v-0.396V76.902
					L95.094,76.902z M-0.694,76.505h95.389V12.21H-0.694V76.505L-0.694,76.505z"/>
			</g>
		</g>
		<g>
			<path fill="#A6A7B8" d="M62.043,23.368h1.393v3.466h-0.664v-2.882h-0.729V23.368z"/>
			<path fill="#A6A7B8" d="M65.336,26.262c0.133,0.038,0.264,0.057,0.396,0.057c0.309,0,0.543-0.104,0.695-0.309
				c0.156-0.207,0.229-0.49,0.225-0.851c-0.088,0.147-0.211,0.264-0.365,0.342c-0.156,0.08-0.338,0.119-0.545,0.119
				c-0.34,0-0.609-0.103-0.807-0.304c-0.199-0.2-0.301-0.471-0.301-0.813c0-0.236,0.053-0.443,0.152-0.617
				c0.1-0.177,0.24-0.312,0.428-0.406s0.398-0.146,0.646-0.146c0.295,0,0.547,0.067,0.762,0.203c0.213,0.137,0.377,0.33,0.488,0.585
				c0.115,0.254,0.172,0.557,0.172,0.904c0,0.367-0.063,0.688-0.186,0.967c-0.125,0.276-0.301,0.49-0.527,0.643
				c-0.229,0.149-0.492,0.225-0.799,0.225c-0.174,0-0.354-0.023-0.547-0.073c-0.188-0.049-0.357-0.115-0.502-0.196l0.258-0.49
				C65.086,26.169,65.203,26.225,65.336,26.262z M65.426,24.062c-0.119,0.107-0.182,0.259-0.182,0.45c0,0.187,0.059,0.33,0.17,0.437
				c0.111,0.104,0.266,0.157,0.459,0.157c0.211,0,0.381-0.06,0.5-0.176c0.123-0.116,0.184-0.264,0.18-0.438
				c0.004-0.158-0.053-0.298-0.164-0.416c-0.115-0.119-0.279-0.179-0.494-0.179C65.701,23.898,65.543,23.952,65.426,24.062z"/>
			<path fill="#A6A7B8" d="M70.457,23.583c0.211,0.162,0.314,0.386,0.314,0.666c0,0.158-0.043,0.303-0.131,0.431
				c-0.086,0.129-0.201,0.229-0.354,0.303c0.205,0.076,0.365,0.19,0.482,0.347c0.115,0.155,0.176,0.334,0.176,0.535
				c0,0.2-0.057,0.379-0.164,0.528c-0.107,0.151-0.266,0.27-0.467,0.351c-0.203,0.081-0.439,0.121-0.711,0.121
				c-0.273,0-0.51-0.04-0.713-0.121c-0.201-0.081-0.357-0.195-0.467-0.345c-0.107-0.147-0.164-0.323-0.164-0.524
				c0-0.204,0.063-0.385,0.186-0.541c0.121-0.157,0.289-0.272,0.504-0.351c-0.16-0.08-0.287-0.187-0.379-0.315
				c-0.09-0.133-0.135-0.278-0.135-0.44c0-0.271,0.104-0.485,0.313-0.646c0.209-0.16,0.49-0.24,0.848-0.24
				C69.961,23.337,70.248,23.419,70.457,23.583z M69.074,25.408c-0.125,0.092-0.189,0.223-0.189,0.392
				c0,0.172,0.064,0.306,0.189,0.4s0.301,0.145,0.529,0.145c0.225,0,0.398-0.048,0.525-0.142c0.127-0.095,0.189-0.229,0.189-0.398
				c0-0.168-0.063-0.301-0.189-0.395c-0.127-0.095-0.307-0.142-0.533-0.142C69.375,25.27,69.199,25.315,69.074,25.408z
				 M69.156,23.938c-0.107,0.082-0.162,0.197-0.162,0.348c0,0.147,0.055,0.263,0.162,0.347c0.104,0.082,0.256,0.123,0.447,0.123
				c0.189,0,0.34-0.041,0.443-0.123c0.104-0.084,0.158-0.197,0.158-0.347c0-0.148-0.055-0.266-0.158-0.348s-0.254-0.124-0.443-0.124
				C69.412,23.813,69.262,23.855,69.156,23.938z"/>
			<path fill="#A6A7B8" d="M71.713,23.368h2.674v0.495l-1.426,2.971h-0.703l1.381-2.887h-1.332l-0.004,0.489h-0.59V23.368
				L71.713,23.368z"/>
		</g>
		<g>
			<path fill="#A6A7B8" d="M19.418,23.368h2.538v0.579H20.08v0.855h1.685v0.578H20.08v0.872h1.938v0.579h-2.6V23.368z"/>
			<path fill="#A6A7B8" d="M24.816,24.006c-0.188-0.061-0.352-0.089-0.492-0.089c-0.158,0-0.285,0.028-0.377,0.089
				s-0.139,0.143-0.139,0.247c0,0.097,0.033,0.177,0.098,0.24c0.065,0.063,0.146,0.116,0.241,0.157
				c0.099,0.041,0.231,0.089,0.399,0.138c0.233,0.068,0.426,0.14,0.575,0.208c0.15,0.068,0.279,0.171,0.386,0.308
				c0.105,0.136,0.157,0.313,0.157,0.534c0,0.212-0.057,0.396-0.172,0.553c-0.112,0.155-0.27,0.276-0.471,0.358
				c-0.199,0.082-0.428,0.123-0.686,0.123c-0.271,0-0.533-0.05-0.791-0.149c-0.259-0.103-0.482-0.235-0.675-0.404l0.277-0.563
				c0.176,0.162,0.371,0.289,0.59,0.383c0.217,0.093,0.42,0.139,0.609,0.139c0.184,0,0.328-0.034,0.436-0.105
				c0.104-0.069,0.158-0.168,0.158-0.289c0-0.1-0.033-0.182-0.098-0.245c-0.065-0.064-0.146-0.115-0.244-0.155
				c-0.101-0.04-0.234-0.085-0.406-0.134c-0.233-0.069-0.426-0.138-0.574-0.203c-0.147-0.065-0.274-0.166-0.381-0.299
				c-0.104-0.136-0.158-0.312-0.158-0.527c0-0.2,0.054-0.378,0.16-0.527c0.107-0.148,0.261-0.268,0.455-0.35
				c0.197-0.082,0.424-0.124,0.683-0.124c0.225,0,0.444,0.033,0.666,0.101c0.219,0.064,0.414,0.154,0.586,0.268l-0.269,0.58
				C25.185,24.15,25.004,24.066,24.816,24.006z"/>
			<path fill="#A6A7B8" d="M26.402,23.368h2.828v0.589h-1.08v2.877h-0.668v-2.877h-1.08V23.368L26.402,23.368z"/>
			<path fill="#A6A7B8" d="M30.293,26.265c0.063,0.064,0.096,0.149,0.096,0.253c0,0.104-0.031,0.19-0.096,0.26
				c-0.064,0.067-0.147,0.103-0.246,0.103c-0.097,0-0.177-0.034-0.24-0.104c-0.064-0.068-0.096-0.154-0.096-0.257
				c0-0.104,0.03-0.188,0.096-0.253c0.063-0.065,0.145-0.1,0.24-0.1C30.145,26.165,30.228,26.198,30.293,26.265z"/>
		</g>
		<g>
			<path fill="#A6A7B8" d="M28.011,67.954c-0.435,0.419-0.941,0.628-1.525,0.628s-1.024-0.149-1.326-0.451
				c-0.301-0.301-0.453-0.688-0.453-1.157c0-1.108,0.845-2.057,2.527-2.836c0.047-0.396,0.115-0.931,0.205-1.604
				c0.09-0.674,0.16-1.217,0.211-1.631c0.053-0.413,0.088-0.688,0.107-0.818c0.385-0.243,0.832-0.365,1.34-0.365
				c0.233,0,0.461,0.022,0.678,0.069l-0.889,6.026C28.736,66.822,28.443,67.535,28.011,67.954z M24.849,60.89
				c0-0.895,0.395-1.636,1.186-2.224c0.791-0.589,1.834-0.883,3.134-0.883c0.688,0,1.303,0.068,1.85,0.205
				c0.545,0.137,0.979,0.308,1.299,0.515c0.318,0.207,0.588,0.447,0.805,0.722c0.357,0.471,0.533,0.994,0.529,1.573
				c-0.006,0.578-0.234,1.095-0.686,1.546c-0.452,0.45-0.998,0.688-1.638,0.704c0.8,0.058,1.494,0.32,2.082,0.791
				c0.588,0.472,0.881,1.063,0.881,1.778c0,0.939-0.36,1.675-1.086,2.201c-0.725,0.526-1.606,0.79-2.646,0.79
				c-1.041,0-1.748-0.136-2.125-0.408l0.438-1.187c0.412,0.216,0.896,0.323,1.445,0.323s1-0.161,1.348-0.485
				c0.351-0.325,0.523-0.756,0.523-1.292s-0.238-0.986-0.713-1.354c-0.478-0.367-1.123-0.551-1.941-0.551l0.127-1.046
				c0.564,0,1.043-0.134,1.435-0.401c0.389-0.269,0.592-0.67,0.604-1.206c0.017-0.536-0.229-0.987-0.727-1.354
				c-0.537-0.386-1.271-0.579-2.202-0.579c-0.61,0-1.208,0.158-1.792,0.475c-0.584,0.315-0.875,0.735-0.875,1.264
				c0,0.254,0.104,0.469,0.311,0.644c0.207,0.174,0.479,0.279,0.818,0.317L27.08,62.81c-0.715-0.026-1.266-0.229-1.651-0.605
				C25.043,61.826,24.849,61.389,24.849,60.89z M25.752,66.789c0,0.34,0.159,0.508,0.479,0.508c0.133,0,0.271-0.086,0.416-0.261
				c0.146-0.175,0.247-0.448,0.305-0.825l0.127-0.875C26.195,65.834,25.752,66.318,25.752,66.789z"/>
			<path fill="#A6A7B8" d="M40.982,68.596c-0.867,0-1.439-0.302-1.723-0.903c-0.49,0.612-1.117,0.918-1.886,0.918
				c-0.766,0-1.409-0.259-1.934-0.775c-0.521-0.519-0.783-1.198-0.783-2.047c0-1.231,0.362-2.217,1.088-2.949
				c0.726-0.733,1.642-1.103,2.752-1.103c0.027,0,0.058,0,0.084,0c0.472,0,0.904,0.08,1.3,0.24c0.254-0.16,0.563-0.24,0.924-0.24
				s0.623,0.048,0.783,0.142c-0.084,0.697-0.176,1.383-0.27,2.056s-0.16,1.149-0.197,1.433c-0.084,0.642-0.127,1.103-0.127,1.384
				c0,0.376,0.15,0.564,0.451,0.564c0.236,0,0.484-0.157,0.748-0.474c0.266-0.316,0.494-0.813,0.691-1.489
				c0.273,0.245,0.461,0.519,0.564,0.817c-0.271,0.896-0.641,1.521-1.102,1.886C41.891,68.414,41.434,68.596,40.982,68.596z
				 M38.709,62.837c-0.603,0-1.08,0.229-1.433,0.685c-0.354,0.457-0.563,1.138-0.629,2.04c-0.01,0.085-0.014,0.165-0.014,0.24
				c0,0.461,0.11,0.827,0.332,1.101c0.22,0.273,0.506,0.41,0.854,0.41c0.594,0,1.039-0.42,1.34-1.257l0.341-3.051
				C39.226,62.895,38.963,62.837,38.709,62.837z"/>
			<path fill="#A6A7B8" d="M46.6,63.585c0-0.414-0.191-0.621-0.572-0.621s-0.684,0.244-0.91,0.734
				c1.018,0.799,1.525,1.696,1.525,2.694c0,0.726-0.203,1.274-0.607,1.649c-0.402,0.377-0.914,0.564-1.523,0.564
				c-0.611,0-1.061-0.189-1.34-0.57c-0.283-0.381-0.426-0.863-0.426-1.447c0-0.179,0.004-0.312,0.016-0.396l0.494-4.305
				c0.338-0.104,0.682-0.156,1.029-0.156c0.572,0,0.859,0.213,0.859,0.636v0.028c0.377-0.442,0.855-0.664,1.439-0.664
				c0.424,0,0.754,0.098,0.988,0.289c0.234,0.192,0.354,0.449,0.354,0.771c0,0.322-0.119,0.582-0.359,0.783
				c-0.24,0.202-0.553,0.304-0.938,0.304c-0.02,0-0.037,0-0.059,0C46.59,63.779,46.6,63.68,46.6,63.585z M44.877,64.687
				c-0.17,1.354-0.254,2.037-0.254,2.046c0,0.396,0.16,0.595,0.48,0.595c0.412,0,0.619-0.334,0.619-1.002
				C45.725,65.778,45.441,65.232,44.877,64.687z"/>
			<path fill="#A6A7B8" d="M52.414,63.585c0-0.414-0.189-0.621-0.572-0.621c-0.381,0-0.684,0.244-0.91,0.734
				c1.018,0.799,1.525,1.696,1.525,2.694c0,0.726-0.203,1.274-0.607,1.649c-0.404,0.377-0.912,0.564-1.523,0.564
				s-1.061-0.189-1.342-0.57c-0.279-0.381-0.424-0.863-0.424-1.447c0-0.179,0.006-0.312,0.014-0.396l0.494-4.305
				c0.34-0.104,0.686-0.156,1.031-0.156c0.574,0,0.861,0.213,0.861,0.636v0.028c0.375-0.442,0.855-0.664,1.439-0.664
				c0.424,0,0.752,0.098,0.986,0.289c0.234,0.192,0.354,0.449,0.354,0.771c0,0.322-0.119,0.582-0.359,0.783
				c-0.24,0.202-0.553,0.304-0.939,0.304c-0.018,0-0.037,0-0.055,0C52.404,63.779,52.414,63.68,52.414,63.585z M50.691,64.687
				c-0.17,1.354-0.254,2.037-0.254,2.046c0,0.396,0.158,0.595,0.479,0.595c0.414,0,0.621-0.334,0.621-1.002
				C51.539,65.778,51.258,65.232,50.691,64.687z"/>
			<path fill="#A6A7B8" d="M57.764,61.736c0.865,0,1.588,0.277,2.166,0.833c0.578,0.557,0.869,1.233,0.869,2.032
				c0,1.215-0.355,2.187-1.066,2.914c-0.711,0.729-1.568,1.095-2.576,1.095c-1.006,0-1.805-0.286-2.393-0.86
				c-0.588-0.572-0.881-1.283-0.881-2.131c0-1.188,0.359-2.126,1.086-2.823C55.703,62.089,56.635,61.736,57.764,61.736z
				 M57.488,62.879c-0.447,0-0.82,0.255-1.123,0.763c-0.301,0.509-0.465,1.147-0.494,1.92c0,0.546,0.111,0.997,0.332,1.354
				c0.221,0.357,0.559,0.537,1.01,0.537s0.83-0.25,1.137-0.748c0.305-0.499,0.459-1.067,0.459-1.708s-0.109-1.146-0.326-1.523
				C58.268,63.078,57.936,62.879,57.488,62.879z"/>
			<path fill="#A6A7B8" d="M65.428,66.945l0.338-3.147c0-0.254-0.066-0.465-0.197-0.635s-0.35-0.254-0.656-0.254
				s-0.564,0.133-0.777,0.401c-0.211,0.269-0.344,0.604-0.398,1.01c-0.34,2.578-0.52,3.979-0.537,4.205h-1.906l0.777-6.647
				c0.395-0.104,0.693-0.153,0.9-0.153c0.631,0,0.961,0.229,0.988,0.69c0.461-0.451,1.014-0.679,1.656-0.679
				c0.646,0,1.15,0.16,1.52,0.48c0.367,0.318,0.553,0.725,0.553,1.213c0,0.133-0.027,0.382-0.086,0.748
				c-0.217,1.431-0.324,2.264-0.324,2.499c0,0.433,0.146,0.648,0.438,0.648c0.641,0,1.125-0.668,1.455-2.004
				c0.32,0.338,0.512,0.604,0.578,0.804c-0.498,1.656-1.363,2.483-2.598,2.483c-0.582,0-1.018-0.179-1.297-0.535
				C65.568,67.717,65.428,67.339,65.428,66.945z"/>
		</g>
		<g>
			<path fill="#A6A7B8" d="M17.537,38.105c1.355,1.164,2.033,2.858,2.033,5.083c0,1.436-0.334,2.688-0.998,3.762
				c-0.664,1.072-1.621,1.905-2.871,2.498c-1.252,0.592-2.737,0.889-4.463,0.889l-1.223-0.021c-0.791-0.026-1.37-0.04-1.738-0.04
				c-1.539,0-2.686,0.021-3.436,0.061V49.94c0.422-0.025,0.729-0.079,0.918-0.156c0.19-0.08,0.319-0.229,0.385-0.455
				c0.066-0.224,0.1-0.585,0.1-1.086v-9.791c0-0.5-0.036-0.862-0.108-1.086c-0.072-0.225-0.2-0.375-0.385-0.455
				c-0.185-0.078-0.486-0.132-0.908-0.157v-0.396c0.604,0.039,1.502,0.06,2.686,0.06h0.711l0.869-0.021
				c1.105-0.025,1.875-0.039,2.31-0.039C14.14,36.358,16.179,36.94,17.537,38.105z M10.795,36.852
				c-0.205,0.093-0.347,0.257-0.425,0.494c-0.08,0.235-0.118,0.592-0.118,1.065v9.87c0,0.474,0.038,0.828,0.118,1.065
				c0.078,0.236,0.22,0.4,0.425,0.492c0.202,0.093,0.516,0.14,0.938,0.14c1.303,0,2.244-0.563,2.822-1.688
				c0.58-1.126,0.869-2.801,0.869-5.024c0-2.225-0.299-3.872-0.898-4.945c-0.598-1.071-1.537-1.608-2.813-1.608
				C11.304,36.712,10.998,36.76,10.795,36.852z"/>
			<path fill="#A6A7B8" d="M32.806,49.615c0.203,0.203,0.403,0.313,0.602,0.324v0.396c-0.946-0.04-2.145-0.061-3.592-0.061
				c-1.5,0-2.606,0.021-3.315,0.061V49.94c0.5-0.025,0.854-0.089,1.063-0.188c0.211-0.1,0.316-0.271,0.316-0.522
				c0-0.235-0.078-0.552-0.236-0.946l-1.166-3.237h-3.986l-0.336,0.89c-0.436,1.118-0.651,1.975-0.651,2.565
				c0,0.539,0.151,0.908,0.455,1.104c0.303,0.197,0.75,0.31,1.342,0.335v0.396c-0.986-0.04-1.851-0.061-2.586-0.061
				c-0.619,0-1.125,0.021-1.521,0.061V49.94c0.328-0.053,0.639-0.257,0.928-0.611s0.586-0.92,0.89-1.697l4.383-11.271
				c0.42,0.026,0.77,0.039,1.045,0.039c0.264,0,0.604-0.013,1.027-0.039l4.776,12.319C32.414,49.098,32.601,49.41,32.806,49.615z
				 M26.341,44.65l-1.797-4.937L22.65,44.65H26.341z"/>
			<path fill="#A6A7B8" d="M47.406,49.456c0.17,0.179,0.395,0.339,0.67,0.482v0.396c-1.105-0.04-2.289-0.061-3.553-0.061
				c-0.977,0-1.916,0.021-2.824,0.061V49.94c0.422-0.025,0.715-0.063,0.879-0.107c0.166-0.047,0.248-0.135,0.248-0.268
				c0-0.132-0.066-0.302-0.197-0.513l-2.863-4.838c-0.183-0.315-0.339-0.533-0.464-0.65c-0.125-0.119-0.279-0.19-0.463-0.217v4.896
				c0,0.501,0.034,0.862,0.106,1.086c0.072,0.226,0.201,0.375,0.388,0.455c0.184,0.077,0.486,0.131,0.908,0.156v0.396
				c-0.764-0.04-1.863-0.061-3.297-0.061c-1.594,0-2.764,0.021-3.516,0.061V49.94c0.422-0.025,0.729-0.079,0.918-0.156
				c0.19-0.08,0.32-0.229,0.387-0.455c0.064-0.224,0.099-0.585,0.099-1.086v-9.791c0-0.5-0.035-0.862-0.109-1.086
				c-0.072-0.225-0.2-0.375-0.385-0.455c-0.185-0.078-0.486-0.132-0.908-0.157v-0.396c0.752,0.039,1.922,0.06,3.516,0.06
				c1.42,0,2.521-0.021,3.296-0.06v0.396c-0.422,0.025-0.728,0.079-0.917,0.157c-0.19,0.08-0.319,0.23-0.387,0.455
				c-0.064,0.224-0.098,0.586-0.098,1.086v4.461c0.524-0.039,1.039-0.235,1.539-0.593c0.5-0.355,1.113-0.94,1.836-1.757l0.672-0.75
				c0.578-0.659,0.869-1.251,0.869-1.776c0-0.383-0.152-0.688-0.455-0.918c-0.303-0.229-0.691-0.357-1.164-0.386v-0.375
				c1.105,0.039,2.217,0.06,3.336,0.06c0.803,0,1.469-0.021,1.994-0.06v0.375c-1.145,0.305-2.225,1.026-3.238,2.173l-1.934,2.19
				l4.58,7.64C47.057,49.039,47.234,49.279,47.406,49.456z"/>
			<path fill="#A6A7B8" d="M59.152,36.931c1.119,0.564,1.984,1.386,2.604,2.458c0.619,1.071,0.93,2.354,0.93,3.84
				c0,1.447-0.314,2.729-0.947,3.851c-0.631,1.119-1.516,1.986-2.646,2.604c-1.133,0.619-2.422,0.928-3.871,0.928
				c-1.484,0-2.789-0.282-3.906-0.848c-1.119-0.565-1.986-1.387-2.605-2.459s-0.928-2.353-0.928-3.841
				c0-1.446,0.314-2.729,0.947-3.85c0.631-1.118,1.514-1.986,2.645-2.604c1.133-0.619,2.422-0.929,3.871-0.929
				C56.73,36.081,58.033,36.365,59.152,36.931z M53.457,37.315c-0.494,0.586-0.873,1.405-1.135,2.458
				c-0.266,1.054-0.396,2.259-0.396,3.613c0,1.367,0.152,2.571,0.455,3.611s0.711,1.844,1.225,2.409
				c0.512,0.564,1.078,0.848,1.697,0.848c0.645,0,1.215-0.292,1.707-0.878c0.494-0.585,0.873-1.404,1.135-2.458
				c0.264-1.053,0.396-2.257,0.396-3.612c0-1.368-0.152-2.572-0.455-3.611s-0.711-1.844-1.225-2.408s-1.078-0.85-1.697-0.85
				C54.52,36.438,53.951,36.73,53.457,37.315z"/>
			<path fill="#A6A7B8" d="M76.604,40.268c0,0.604,0.02,1.078,0.059,1.422h-0.451c-0.436-1.726-0.994-2.969-1.68-3.731
				c-0.686-0.764-1.422-1.146-2.211-1.146h-0.02v11.292c0,0.554,0.055,0.954,0.168,1.204c0.109,0.25,0.313,0.418,0.609,0.504
				c0.299,0.086,0.768,0.128,1.412,0.128v0.396c-1.854-0.04-3.297-0.061-4.322-0.061c-0.936,0-2.289,0.021-4.066,0.061V49.94
				c0.645,0,1.115-0.042,1.412-0.128c0.295-0.086,0.5-0.254,0.611-0.504c0.109-0.25,0.168-0.65,0.168-1.204V36.813h-0.021
				c-0.803,0-1.543,0.379-2.221,1.136c-0.682,0.758-1.234,2.004-1.668,3.741h-0.455c0.039-0.344,0.059-0.815,0.059-1.422
				c0-1.146-0.045-2.448-0.137-3.909c1.25,0.039,3.4,0.06,6.455,0.06c3.039,0,5.186-0.021,6.436-0.06
				C76.65,37.819,76.604,39.123,76.604,40.268z"/>
			<path fill="#A6A7B8" d="M89.111,49.615c0.203,0.203,0.402,0.313,0.602,0.324v0.396c-0.947-0.04-2.146-0.061-3.594-0.061
				c-1.5,0-2.605,0.021-3.316,0.061V49.94c0.5-0.025,0.855-0.089,1.066-0.188s0.316-0.271,0.316-0.522
				c0-0.235-0.08-0.552-0.238-0.946l-1.164-3.237h-3.988l-0.336,0.89c-0.434,1.118-0.65,1.975-0.65,2.565
				c0,0.539,0.15,0.908,0.453,1.104c0.303,0.197,0.75,0.31,1.344,0.335v0.396c-0.988-0.04-1.85-0.061-2.586-0.061
				c-0.619,0-1.127,0.021-1.521,0.061V49.94c0.33-0.053,0.641-0.257,0.93-0.611s0.586-0.92,0.889-1.697l4.383-11.271
				c0.422,0.026,0.771,0.039,1.047,0.039c0.264,0,0.605-0.013,1.025-0.039l4.779,12.319C88.719,49.098,88.906,49.41,89.111,49.615z
				 M82.645,44.65l-1.797-4.937l-1.896,4.937H82.645z"/>
		</g>
		<g>
			<g>
				<path fill="#A6A7B8" d="M3.836,80.658v-5.832H0.922V71.91H-4.91V16.807l5.832-0.002V13.89h2.914V8.061h86.332l-0.002,5.829
					h2.916v2.917h5.83V71.91h-5.83v2.916h-2.914v5.832H3.836L3.836,80.658z M-4.119,71.121h5.83v2.914h2.913v5.83h84.752v-5.83
					h2.914v-2.914h5.83V17.596h-5.434v-0.396h0.395h-0.395v0.396h-0.396v-2.915h-2.914V8.852H4.625v5.829H1.711v2.915h-5.83V71.121
					L-4.119,71.121z"/>
			</g>
		</g>
		<g>
			<g>
				<path fill="#A6A7B8" d="M54.756,25.251v-0.776h-2.021c-0.086-1.297-0.6-2.473-1.402-3.394l0.939-0.938l-0.549-0.55l-0.943,0.938
					c-0.918-0.804-2.094-1.313-3.389-1.402v-2.021h-0.779v2.021c-1.295,0.089-2.471,0.601-3.391,1.402l-0.939-0.938l-0.551,0.551
					l0.939,0.94c-0.803,0.919-1.314,2.095-1.4,3.391h-2.023v0.777h2.023c0.086,1.295,0.598,2.472,1.402,3.392l-0.941,0.94
					l0.551,0.549l0.939-0.938c0.92,0.804,2.096,1.316,3.391,1.404v2.021h0.779v-2.021c1.295-0.088,2.471-0.603,3.389-1.404
					l0.943,0.938l0.549-0.551l-0.941-0.938c0.807-0.92,1.316-2.097,1.404-3.392H54.756z M51.957,24.475h-2.838
					c-0.059-0.307-0.176-0.588-0.346-0.834l2.006-2.006C51.445,22.412,51.871,23.394,51.957,24.475z M47.002,26.24
					c-0.762-0.001-1.377-0.616-1.379-1.379c0.002-0.761,0.617-1.375,1.379-1.377c0.762,0.002,1.377,0.616,1.377,1.377
					C48.379,25.623,47.764,26.239,47.002,26.24z M50.229,21.083l-2.004,2.006c-0.246-0.17-0.527-0.286-0.834-0.344v-2.838
					C48.473,19.994,49.453,20.419,50.229,21.083z M46.611,19.908v2.838c-0.307,0.058-0.588,0.174-0.834,0.344l-2.006-2.006
					C44.551,20.419,45.531,19.994,46.611,19.908z M43.225,21.635l2.004,2.005c-0.17,0.247-0.287,0.528-0.344,0.834h-2.838
					C42.133,23.393,42.559,22.412,43.225,21.635z M42.047,25.251h2.838c0.057,0.307,0.174,0.588,0.344,0.833l-2.004,2.005
					C42.559,27.314,42.133,26.332,42.047,25.251z M43.773,28.641l2.004-2.005c0.248,0.169,0.527,0.287,0.834,0.344v2.837
					C45.531,29.731,44.551,29.305,43.773,28.641z M47.391,29.816v-2.837c0.307-0.057,0.588-0.175,0.832-0.343l2.006,2.004
					C49.453,29.305,48.471,29.731,47.391,29.816z M50.779,28.089l-2.006-2.005c0.17-0.245,0.287-0.526,0.346-0.833h2.838
					C51.871,26.332,51.445,27.314,50.779,28.089z"/>
			</g>
		</g>
	</g>
</g>
</svg>
