<?xml version="1.0" encoding="utf-8"?>
<!-- Generator: Adobe Illustrator 13.0.0, SVG Export Plug-In . SVG Version: 6.00 Build 14948)  -->
<!DOCTYPE svg PUBLIC "-//W3C//DTD SVG 1.1//EN" "http://www.w3.org/Graphics/SVG/1.1/DTD/svg11.dtd">
<svg version="1.1" id="Layer_1" xmlns="http://www.w3.org/2000/svg" xmlns:xlink="http://www.w3.org/1999/xlink" x="0px" y="0px"
	 width="97.154px" height="87.259px" viewBox="0 0 97.154 87.259" enable-background="new 0 0 97.154 87.259" xml:space="preserve">
<g>
	<g>
		<g>
			<g>
				<path fill="#A6A7B8" d="M0,48.284h3.283l2.701,14.467l2.551-14.467h3.357L7.777,68.735H4.115L0,48.284z"/>
				<path fill="#A6A7B8" d="M16.615,48.284H20.3v20.451h-3.686V48.284z"/>
				<path fill="#A6A7B8" d="M25.982,48.284h2.6l4.975,11.664V48.284h3.08v20.451h-2.475l-5-12.221v12.221h-3.18V48.284z"/>
				<path fill="#A6A7B8" d="M44.261,51.036h-3.408v-2.752h10.479v2.752h-3.359v17.699h-3.711V51.036z"/>
				<path fill="#A6A7B8" d="M58.451,48.284h3.99l4.09,20.451h-3.459l-0.809-4.722h-3.559l-0.834,4.722h-3.51L58.451,48.284z
					 M61.859,61.641l-1.389-8.585l-1.389,8.585H61.859z"/>
				<path fill="#A6A7B8" d="M71.998,67.208c-0.852-1.203-1.275-2.941-1.275-5.214v-6.868c0-2.34,0.438-4.103,1.313-5.289
					c0.875-1.188,2.381-1.78,4.52-1.78c2.02,0,3.467,0.501,4.344,1.502c0.873,1.003,1.313,2.487,1.313,4.456v1.061H78.65v-1.161
					c0-0.741-0.047-1.329-0.139-1.767c-0.094-0.438-0.287-0.775-0.58-1.01c-0.295-0.236-0.738-0.354-1.326-0.354
					c-0.623,0-1.086,0.151-1.389,0.455c-0.303,0.302-0.502,0.69-0.594,1.161c-0.094,0.472-0.139,1.086-0.139,1.844v8.559
					c0,1.162,0.156,2.029,0.467,2.601c0.311,0.572,0.896,0.858,1.756,0.858c0.842,0,1.426-0.303,1.754-0.909
					c0.328-0.605,0.492-1.515,0.492-2.727v-1.919h-2.197v-2.348h5.557v10.377h-2.426l-0.252-1.994
					c-0.639,1.514-1.793,2.271-3.459,2.271C74.24,69.013,72.847,68.412,71.998,67.208z"/>
				<path fill="#A6A7B8" d="M87.689,48.284h8.584v2.626H91.4v5.883h3.838v2.601H91.4v6.791h4.924v2.551h-8.635V48.284z"/>
			</g>
		</g>
		<g>
			<g>
				<path fill="#A6A7B8" d="M18.515,86.313c-0.555-0.632-0.857-1.573-0.908-2.824l1.939-0.382c0.029,0.783,0.154,1.382,0.373,1.793
					c0.219,0.412,0.563,0.619,1.031,0.619c0.346,0,0.602-0.104,0.77-0.313c0.168-0.209,0.252-0.492,0.252-0.848
					c0-0.488-0.109-0.9-0.328-1.236s-0.563-0.713-1.029-1.131l-1.557-1.357c-0.479-0.428-0.838-0.867-1.076-1.32
					c-0.24-0.453-0.359-1.01-0.359-1.672c0-0.977,0.285-1.729,0.854-2.26c0.57-0.527,1.359-0.793,2.367-0.793
					c1.059,0,1.816,0.303,2.275,0.908c0.457,0.605,0.721,1.422,0.793,2.449l-1.939,0.336c-0.029-0.661-0.119-1.164-0.266-1.512
					c-0.148-0.345-0.436-0.518-0.863-0.518c-0.346,0-0.619,0.106-0.816,0.32c-0.199,0.214-0.299,0.494-0.299,0.84
					c0,0.396,0.082,0.727,0.246,0.992c0.162,0.264,0.416,0.555,0.762,0.869l1.543,1.359c0.58,0.519,1.033,1.059,1.357,1.618
					c0.326,0.56,0.488,1.216,0.488,1.969c0,0.591-0.129,1.114-0.389,1.572s-0.623,0.817-1.092,1.076
					c-0.467,0.26-1.006,0.39-1.617,0.39C19.906,87.259,19.07,86.943,18.515,86.313z"/>
				<path fill="#A6A7B8" d="M32.765,76.39h-2.061v-1.664h6.334v1.664h-2.029v10.701h-2.244V76.39z"/>
				<path fill="#A6A7B8" d="M45.863,82.374l-2.504-7.648h2.105l1.527,4.9l1.436-4.9h2.061l-2.473,7.648v4.717h-2.152V82.374z"/>
				<path fill="#A6A7B8" d="M57.677,74.726h2.244V85.55h3.008v1.541h-5.252V74.726z"/>
				<path fill="#A6A7B8" d="M70.21,74.726H75.4v1.588h-2.947v3.557h2.322v1.572h-2.322v4.107h2.977v1.541H70.21V74.726z"/>
			</g>
		</g>
		<g>
			<g>
				<path fill="#A6A7B8" d="M96.011,4.735c-0.088-0.102-3.652-4.164-15.146-3.943c-0.063-0.002-0.125-0.006-0.186-0.009
					C78.24,0.28,75.544,0,72.71,0c-5.908,0-11.213,1.212-14.848,3.138l-0.086,0.031c0,0-4.258,0.74-9.033,0.849
					c-4.775-0.108-9.033-0.849-9.033-0.849l-0.086-0.031C35.99,1.212,30.685,0,24.777,0c-2.834,0-5.529,0.28-7.969,0.783
					c-0.061,0.003-0.123,0.007-0.186,0.009C5.128,0.571,1.564,4.634,1.476,4.735C0.763,5.211,0.335,5.822,0.335,6.488
					c0,0.86,0.715,1.629,1.836,2.134V8.63c0,0,2.564,1.486,2.662,4.1c0.002,0.002,0.002,0.005,0.002,0.007
					C5.281,20.507,7.49,25.657,7.49,25.657l0.434,0.748c2.287,5.044,8.484,8.662,15.777,8.662c5.049,0,9.572-1.737,12.639-4.479
					c1.922-1.158,6.586-5.253,7.953-14.521l0,0c0.41-3.104,2.137-5.465,4.238-5.623c0.041-0.004,0.08-0.006,0.121-0.006
					c0.029-0.002,0.061-0.004,0.092-0.005c0.031,0.001,0.061,0.003,0.092,0.005c0.041,0,0.082,0.002,0.121,0.006
					c2.102,0.158,3.83,2.52,4.238,5.623l0,0c1.367,9.269,6.031,13.363,7.955,14.521c3.064,2.741,7.588,4.479,12.637,4.479
					c7.293,0,13.49-3.618,15.777-8.662L90,25.657c0,0,2.207-5.15,2.652-12.921c0.002-0.002,0.002-0.005,0.002-0.007
					c0.1-2.613,2.662-4.1,2.662-4.1V8.622c1.121-0.505,1.838-1.273,1.838-2.134C97.154,5.822,96.724,5.211,96.011,4.735z
					 M42.156,11.07c0.074,12.01-5.289,16.957-7.283,18.19c-2.68,2.463-6.631,4.023-11.043,4.023c-6.371,0-11.787-3.25-13.787-7.781
					l-0.381-0.672c0,0-2.574-6.175-2.377-15.024c0.432-1.188,0.432-1.188,0.432-1.188l0.014-0.01
					c1.5-3.885,8.559-6.826,17.041-6.826c9.574,0,17.334,3.748,17.334,8.371C42.105,10.376,42.191,10.853,42.156,11.07z
					 M87.826,24.831l-0.381,0.672c-1.998,4.531-7.416,7.781-13.787,7.781c-4.41,0-8.363-1.561-11.043-4.023
					c-1.992-1.233-7.357-6.181-7.283-18.19c-0.033-0.218,0.051-0.694,0.051-0.917c0-4.623,7.762-8.371,17.334-8.371
					c8.482,0,15.541,2.941,17.041,6.826l0.016,0.01c0,0,0,0,0.43,1.188C90.4,18.656,87.826,24.831,87.826,24.831z"/>
			</g>
		</g>
	</g>
</g>
</svg>
