<?xml version="1.0" encoding="utf-8"?>
<!-- Generator: Adobe Illustrator 13.0.0, SVG Export Plug-In . SVG Version: 6.00 Build 14948)  -->
<!DOCTYPE svg PUBLIC "-//W3C//DTD SVG 1.1//EN" "http://www.w3.org/Graphics/SVG/1.1/DTD/svg11.dtd">
<svg version="1.1" id="Layer_1" xmlns="http://www.w3.org/2000/svg" xmlns:xlink="http://www.w3.org/1999/xlink" x="0px" y="0px"
	 width="102.745px" height="104.097px" viewBox="0 0 102.745 104.097" enable-background="new 0 0 102.745 104.097"
	 xml:space="preserve">
<g>
	<g>
		<g>
			<path fill="#A6A7B8" d="M42.713,69.422c-0.059,0.041-0.275,0.11-0.652,0.205c-0.303,0.09-0.459,0.138-0.465,0.143v-0.92
				c0.238-0.083,0.5-0.199,0.783-0.344c0.283-0.146,0.49-0.297,0.621-0.452h0.957v7.241h-1.244V69.422z"/>
			<path fill="#A6A7B8" d="M47.073,74.934c-0.289-0.307-0.439-0.764-0.451-1.373v-0.107h1.189c0,0.346,0.043,0.594,0.129,0.742
				c0.086,0.149,0.254,0.224,0.506,0.224c0.232,0,0.395-0.111,0.486-0.335c0.092-0.223,0.139-0.609,0.139-1.158v-0.858
				c-0.084,0.144-0.211,0.254-0.385,0.331c-0.172,0.078-0.377,0.117-0.615,0.117c-1.014,0-1.521-0.709-1.521-2.128
				c0-0.757,0.15-1.349,0.451-1.774s0.781-0.64,1.436-0.64c0.645,0,1.121,0.21,1.43,0.63c0.311,0.42,0.467,0.988,0.467,1.703v2.566
				c0,0.787-0.143,1.403-0.426,1.85c-0.283,0.447-0.773,0.671-1.471,0.671C47.817,75.394,47.362,75.24,47.073,74.934z
				 M49.071,71.184v-1.127c0-0.352-0.047-0.629-0.139-0.831s-0.258-0.305-0.496-0.305s-0.404,0.109-0.496,0.327
				c-0.092,0.217-0.139,0.534-0.139,0.951c0,0.328,0.01,0.582,0.031,0.765s0.078,0.329,0.17,0.442c0.094,0.113,0.24,0.17,0.443,0.17
				C48.713,71.576,48.922,71.445,49.071,71.184z"/>
			<path fill="#A6A7B8" d="M52.508,74.854c-0.266-0.367-0.398-0.911-0.398-1.632h1.207c0,0.411,0.045,0.721,0.135,0.929
				c0.09,0.209,0.266,0.313,0.527,0.313c0.197,0,0.344-0.063,0.438-0.192c0.096-0.127,0.158-0.301,0.184-0.518
				c0.027-0.219,0.041-0.521,0.041-0.908c0-0.477-0.045-0.828-0.135-1.055s-0.273-0.34-0.555-0.34c-0.166,0-0.309,0.057-0.424,0.17
				c-0.117,0.113-0.201,0.268-0.256,0.465h-1.063l0.07-4.032h3.254v1.108h-2.217l-0.07,1.743c0.1-0.112,0.246-0.204,0.438-0.272
				s0.398-0.102,0.627-0.102c0.512,0,0.891,0.194,1.139,0.584c0.248,0.391,0.371,0.941,0.371,1.65c0,0.555-0.053,1.022-0.156,1.404
				c-0.105,0.381-0.293,0.682-0.568,0.902c-0.273,0.221-0.662,0.33-1.162,0.33C53.249,75.402,52.774,75.22,52.508,74.854z"/>
			<path fill="#A6A7B8" d="M59.432,69.002h-1.957v-0.948h3.174v0.751l-1.467,6.49h-1.197L59.432,69.002z"/>
		</g>
		<g>
			<path fill="#A6A7B8" d="M32.672,58.737c-0.709-1.004-1.064-2.454-1.064-4.35V48.66c0-1.951,0.365-3.423,1.096-4.412
				c0.729-0.99,1.986-1.484,3.77-1.484c1.684,0,2.891,0.418,3.621,1.253s1.096,2.073,1.096,3.717v0.884h-2.969v-0.969
				c0-0.617-0.039-1.108-0.115-1.474c-0.078-0.365-0.24-0.646-0.486-0.843c-0.244-0.196-0.613-0.295-1.104-0.295
				c-0.521,0-0.906,0.127-1.16,0.379c-0.252,0.254-0.416,0.577-0.494,0.97c-0.078,0.394-0.115,0.905-0.115,1.537v7.14
				c0,0.968,0.129,1.691,0.389,2.168c0.26,0.479,0.748,0.717,1.465,0.717c0.701,0,1.189-0.252,1.463-0.758s0.41-1.264,0.41-2.274
				v-1.601h-1.832v-1.959h4.633v8.655h-2.021l-0.211-1.663c-0.533,1.264-1.494,1.895-2.885,1.895
				C34.542,60.242,33.381,59.741,32.672,58.737z"/>
			<path fill="#A6A7B8" d="M46.202,42.953h3.328l3.412,17.058h-2.887l-0.672-3.938h-2.971l-0.695,3.938h-2.926L46.202,42.953z
				 M49.045,54.094l-1.158-7.16l-1.158,7.16H49.045z"/>
			<path fill="#A6A7B8" d="M55.764,45.248H52.92v-2.295h8.738v2.295h-2.801v14.763h-3.094V45.248z"/>
			<path fill="#A6A7B8" d="M63.86,58.938c-0.764-0.87-1.182-2.17-1.252-3.896l2.674-0.526c0.043,1.081,0.215,1.905,0.516,2.475
				c0.303,0.568,0.777,0.853,1.422,0.853c0.479,0,0.832-0.145,1.064-0.432c0.23-0.287,0.348-0.678,0.348-1.169
				c0-0.674-0.152-1.243-0.453-1.706c-0.303-0.463-0.777-0.982-1.422-1.559l-2.148-1.874c-0.66-0.589-1.154-1.196-1.484-1.821
				s-0.494-1.394-0.494-2.306c0-1.349,0.393-2.387,1.178-3.117c0.787-0.729,1.875-1.095,3.266-1.095
				c1.459,0,2.506,0.418,3.137,1.253c0.633,0.835,0.998,1.962,1.096,3.38l-2.674,0.463c-0.043-0.912-0.166-1.607-0.369-2.085
				s-0.6-0.716-1.189-0.716c-0.479,0-0.854,0.147-1.127,0.443c-0.273,0.295-0.41,0.68-0.41,1.157c0,0.548,0.111,1.005,0.336,1.369
				s0.576,0.766,1.053,1.2l2.127,1.874c0.801,0.716,1.426,1.462,1.875,2.232c0.449,0.772,0.674,1.679,0.674,2.718
				c0,0.813-0.18,1.537-0.537,2.168c-0.357,0.633-0.861,1.127-1.506,1.484c-0.646,0.359-1.391,0.537-2.232,0.537
				C65.78,60.242,64.625,59.808,63.86,58.938z"/>
		</g>
		<g>
			<g>
				<path fill="#A6A7B8" d="M7.991,26.245l-1.367-0.789l-0.652,1.132l1.365,0.789L7.991,26.245z M19.295,22.426l0.447-0.477
					l-0.996-0.936l-0.447,0.479L19.295,22.426z M32.014,12.913l-0.617-1.222l-0.582,0.295l0.615,1.22L32.014,12.913z M15.334,79.043
					l0.395,0.52l1.09-0.826l-0.398-0.521L15.334,79.043z M5.969,77.505l0.654,1.134l1.367-0.789l-0.654-1.131L5.969,77.505z
					 M34.725,4.396l-0.539-1.482L32.958,3.36l0.539,1.483L34.725,4.396z M0,43.652l1.555,0.274l0.227-1.287l-1.555-0.274L0,43.652z
					 M0,60.441l0.227,1.287l1.553-0.273l-0.225-1.286L0,60.441z M17.415,91.499l1.002,0.841l1.014-1.209l-1-0.838L17.415,91.499z
					 M87.413,25.053l-0.396-0.52l-1.084,0.826l0.395,0.521L87.413,25.053z M46.641,8.644l-0.156-1.359l-0.65,0.076l0.158,1.358
					L46.641,8.644z M102.745,43.653l-0.227-1.287l-1.555,0.274l0.229,1.287L102.745,43.653z M85.331,12.596l-1.002-0.84
					l-1.014,1.208l1.002,0.841L85.331,12.596z M96.776,26.59l-0.654-1.134l-1.365,0.79l0.652,1.132L96.776,26.59z M75.942,14.312
					l-0.551-0.353l-0.738,1.15l0.551,0.354L75.942,14.312z M52.026,0h-1.305v1.576h1.305V0z M61.477,8.168l-0.639-0.143
					l-0.295,1.333l0.637,0.143L61.477,8.168z M69.79,3.361l-1.229-0.447l-0.539,1.482l1.227,0.447L69.79,3.361z M19.432,12.964
					l-1.016-1.208l-1.002,0.84l1.016,1.208L19.432,12.964z M91.42,69.443l1.258,0.535l0.256-0.603l-1.256-0.534L91.42,69.443z
					 M94.754,77.85l1.367,0.789l0.654-1.134l-1.365-0.788L94.754,77.85z M9.75,65.234L9.557,64.61L8.25,65.013l0.195,0.626
					L9.75,65.234z M99.797,42.846L85.01,45.453v-3.445l7.25-2.236l-0.191-0.623l-7.059,2.178v-3.792l5.539-2.449l-0.264-0.597
					L85.01,36.82v-2.021c-0.01-0.429-0.104-0.857-0.254-1.271l9.625-5.557l-0.652-1.133l-9.586,5.535
					c-0.32-0.433-0.717-0.805-1.164-1.073l-2.16-1.233l4.732-3.6l-0.395-0.519l-4.953,3.768l-3.262-1.862l5.391-5.199l-0.449-0.469
					l-5.531,5.332l-2.396-1.367l9.598-11.438l-1-0.841l-9.752,11.621l-2.947-1.683l4.824-7.529l-0.547-0.353l-4.844,7.558
					l-2.857-1.63l3.916-8.05l-0.584-0.286l-3.9,8.012l-2.225-1.27l5.205-14.306L67.614,5.51l-5.129,14.096l-3.154-1.801l1.637-7.355
					l-0.635-0.143l-1.596,7.16l-3.301-1.883l0.611-5.971l-0.646-0.066l-0.582,5.684l-1.447-0.826
					c-0.41-0.23-0.871-0.364-1.346-0.432V2.747h-1.305v11.216c-0.496,0.063-0.979,0.202-1.402,0.443l-1.881,1.075l-0.682-5.834
					L46.11,9.724l0.713,6.109L43.557,17.7l-1.715-7.224l-0.635,0.15l1.76,7.41l-2.713,1.551L35.125,5.496l-1.227,0.446l5.203,14.303
					l-2.635,1.507l-4-7.936l-0.582,0.293l4.016,7.966l-2.857,1.634l-4.908-7.426l-0.543,0.359l4.883,7.391l-2.537,1.451
					l-9.756-11.623L19.184,14.7l9.6,11.442l-2.838,1.623l-5.465-5.123l-0.445,0.475l5.318,4.986l-3.299,1.886l-4.795-3.542
					l-0.385,0.523l4.563,3.371l-1.674,0.956c-0.447,0.27-0.842,0.642-1.162,1.074l-9.6-5.542L8.35,27.963l9.639,5.563
					c-0.15,0.413-0.246,0.843-0.254,1.272v2.582l-5.477-2.332l-0.256,0.6l5.732,2.439v3.752l-7.193-2.11l-0.184,0.624l7.377,2.165
					v2.933L2.934,42.842l-0.229,1.287l15.029,2.65v3.209l-8.938-0.46l-0.033,0.649l8.971,0.463v3.286l-8.941,0.586l0.043,0.649
					l8.898-0.584v2.736l-15.029,2.65l0.229,1.287l14.801-2.609v3.445l-7.211,2.225l0.193,0.622l7.016-2.165v3.794l-5.496,2.431
					l0.26,0.596l5.236-2.314v2.021c0.01,0.428,0.105,0.857,0.254,1.271L8.35,76.132l0.652,1.132l9.6-5.542
					c0.32,0.433,0.715,0.805,1.162,1.073l2.164,1.234l-4.701,3.574l0.395,0.52l4.92-3.743l3.266,1.862l-5.363,5.171l0.451,0.468
					l5.5-5.303l2.395,1.366l-9.607,11.449l1,0.841l9.76-11.632l2.951,1.684l-4.803,7.495l0.549,0.352l4.818-7.523l2.859,1.631
					l-3.898,8.014l0.586,0.285l3.881-7.975l2.223,1.268L33.897,98.15l1.227,0.449l5.135-14.109l3.158,1.801l-1.629,7.315
					l0.637,0.142l1.584-7.119l3.303,1.885l-0.607,5.928l0.646,0.066l0.578-5.642l1.445,0.825c0.41,0.23,0.871,0.365,1.348,0.431
					v11.212h1.305V90.131c0.496-0.064,0.975-0.203,1.398-0.441l1.883-1.078l0.686,5.875l0.646-0.074l-0.717-6.151l3.266-1.867
					l1.725,7.266l0.635-0.151l-1.77-7.451l2.715-1.551l5.123,14.08l1.229-0.447l-5.201-14.291l2.635-1.505l4.02,7.974l0.58-0.295
					l-4.033-8.002l2.857-1.634l4.93,7.46l0.545-0.359l-4.906-7.425l2.539-1.452l9.744,11.613l1.002-0.839l-9.594-11.433l2.838-1.621
					l5.494,5.151l0.449-0.476l-5.352-5.016l3.299-1.884l4.828,3.567l0.387-0.525l-4.598-3.395l1.672-0.957
					c0.449-0.27,0.844-0.643,1.166-1.075l9.584,5.533l0.654-1.13l-9.627-5.558c0.15-0.413,0.242-0.843,0.252-1.271v-2.583
					l5.518,2.348l0.256-0.599l-5.773-2.457l0.002-3.751l7.234,2.122l0.184-0.625l-7.418-2.176v-2.936l14.787,2.607l0.227-1.286
					L85.01,57.314v-3.206l8.979,0.462l0.035-0.651l-9.014-0.464v-3.286l8.982-0.589l-0.041-0.65l-8.941,0.588v-2.738l15.014-2.647
					L99.797,42.846z M83.702,69.297c0.031,0.781-0.678,2.004-1.371,2.365L52.776,88.555c-0.334,0.193-0.857,0.316-1.379,0.314
					c-0.523,0.002-1.043-0.119-1.375-0.313L20.413,71.66c-0.693-0.361-1.402-1.582-1.373-2.363l0.002-34.498
					c-0.031-0.783,0.678-2.004,1.371-2.367L49.969,15.54c0.332-0.195,0.854-0.318,1.375-0.315c0.523-0.003,1.045,0.12,1.379,0.314
					l29.607,16.895c0.693,0.361,1.402,1.582,1.373,2.365L83.702,69.297z M96.325,54.691l0.033-0.653l-1.365-0.069l-0.033,0.653
					L96.325,54.691z M100.963,61.455l1.555,0.275l0.227-1.289l-1.553-0.272L100.963,61.455z M6.422,49.404l-0.033,0.654l1.363,0.068
					l0.035-0.652L6.422,49.404z M92.997,38.861l0.191,0.625l1.307-0.404l-0.193-0.623L92.997,38.861z M11.327,34.652l-1.26-0.536
					L9.813,34.72l1.258,0.534L11.327,34.652z M56.104,95.453l0.158,1.357l0.65-0.076l-0.158-1.355L56.104,95.453z M26.805,89.783
					l0.551,0.354l0.736-1.15l-0.549-0.354L26.805,89.783z M41.27,95.928l0.639,0.143l0.297-1.334l-0.639-0.143L41.27,95.928z
					 M83.45,81.67l-0.447,0.477L84,83.082l0.447-0.479L83.45,81.67z M32.958,100.733l1.229,0.448l0.539-1.482l-1.229-0.447
					L32.958,100.733z M50.719,104.097h1.307v-1.577h-1.307V104.097z M68.02,99.699l0.541,1.482l1.227-0.448l-0.539-1.481
					L68.02,99.699z M83.313,91.131l1.016,1.209l1.002-0.841l-1.014-1.208L83.313,91.131z M70.733,91.184l0.615,1.221l0.584-0.295
					l-0.615-1.221L70.733,91.184z"/>
			</g>
		</g>
		<g>
			<g>
				<path fill="#A6A7B8" d="M56.547,30.431c-0.117-0.206-0.236-0.368-0.336-0.447c-0.088-0.07-0.184-0.16-0.367,0.152
					c-0.125,0.223-0.277,0.396-0.443,0.532c-0.713,0.592-1.641,0.529-1.432,0.947c0.123,0.252,0.48,0.545,0.912,0.797
					c-0.607,0.94-1.697,1.612-2.977,1.76v-4.249h0.82v-0.855h-0.82v-0.866h2.379l-0.541-1h-1.838v-0.993
					c0.645-0.222,1.109-0.831,1.109-1.55c0-0.904-0.736-1.64-1.643-1.64c-0.904,0-1.639,0.735-1.639,1.64
					c0,0.719,0.463,1.328,1.107,1.55v0.993h-1.836l-0.543,1h2.379v0.866h-0.818v0.855h0.818v4.249
					c-1.277-0.149-2.365-0.822-2.973-1.763c0.432-0.251,0.785-0.542,0.91-0.794c0.207-0.417-0.715-0.355-1.426-0.943
					c-0.168-0.137-0.326-0.311-0.451-0.536c-0.184-0.313-0.279-0.223-0.367-0.152c-0.098,0.077-0.211,0.233-0.328,0.435
					c-0.451,0.781-0.916,2.252-0.41,2.511c0.225,0.114,0.607,0.073,1.025-0.056c0.879,1.467,2.59,2.461,4.555,2.461
					c1.967,0,3.676-0.994,4.555-2.459c0.416,0.127,0.797,0.168,1.02,0.054C57.454,32.671,56.999,31.215,56.547,30.431z
					 M50.831,24.658c0-0.299,0.242-0.541,0.541-0.541c0.301,0,0.543,0.242,0.543,0.541c0,0.3-0.242,0.541-0.543,0.541
					C51.073,25.199,50.831,24.958,50.831,24.658z"/>
			</g>
		</g>
		<g>
			<g>
				<g>
					<polygon fill="#A6A7B8" points="32.348,71.562 32.348,70.873 36.936,70.873 36.936,71.562 32.348,71.562 					"/>
				</g>
			</g>
			<g>
				<g>
					<polygon fill="#A6A7B8" points="65.809,71.562 65.809,70.873 70.397,70.873 70.397,71.562 65.809,71.562 					"/>
				</g>
			</g>
		</g>
	</g>
</g>
</svg>
