<?xml version="1.0" encoding="utf-8"?>
<!-- Generator: Adobe Illustrator 13.0.0, SVG Export Plug-In . SVG Version: 6.00 Build 14948)  -->
<!DOCTYPE svg PUBLIC "-//W3C//DTD SVG 1.1//EN" "http://www.w3.org/Graphics/SVG/1.1/DTD/svg11.dtd">
<svg version="1.1" id="Layer_1" xmlns="http://www.w3.org/2000/svg" xmlns:xlink="http://www.w3.org/1999/xlink" x="0px" y="0px"
	 width="139.868px" height="71.105px" viewBox="0 0 139.868 71.105" enable-background="new 0 0 139.868 71.105"
	 xml:space="preserve">
<g>
	<g>
		<g>
			<path fill="#A6A7B8" d="M74.563,52.879c0,0-0.196,1.521,3.629,3.695c3.824,2.175,8.059,4.385,12.201,7.061
				c1.953,1.206,4.744,3.232,11.175,2.026c6.429-1.206,15.417-1.935,35.524-19.354c1.484-1.301,3.092-2.73,2.723-3.238
				c-0.371-0.506-0.939-0.016-2.174,1.014c-1.236,1.025-17.42,12.363-25.938,15.593c-2.303,0.89-3.908,1.145-4.172-0.294
				c-0.264-1.439,0.913-3.18,2.528-3.979c1.613-0.801,12.397-5.906,20.478-23.221c1.186-2.815,2.122-8.551,1.078-9.018
				c0,0-0.397-0.285-0.717,1.09c-0.32,1.374-1.068,5.414-2.708,8.152s-9.564,16.571-19.065,18.814
				c-1.452,0.104-3.104-0.006-4.068-2.99c-0.965-2.985-1.977-5.804-2.805-8.531c-0.83-2.727-0.639-9.148,0.82-12.584
				c1.458-3.436,1.492-6.072,1.844-7.828c0.35-1.756,0.695-2.822,0.488-2.938c-0.207-0.113-0.284,0.039-0.443,0.469
				c-0.16,0.431-1.335,3.641-2.223,5.448c-0.889,1.811-4.199,7.386-4.328,13.685c-0.131,6.302,4.087,12.169,4.368,16.744
				c0.281,4.573-0.995,8.328-4.661,8.309s-6.299-1.418-7.092-2.291c-0.795-0.871-0.378-1.666,0.426-1.831s3.636-0.903,3.636-0.903
				s0.924-0.145,0.856-0.84c-0.066-0.697-0.217-1.227-0.217-1.227s0.053-0.561-1.234-0.146s-2.406,0.6-3.246,0.721
				c-1.607,0.231-2.609,0.49-3.48,0.451s-3.398-0.777-5.525-1.977c-2.125-1.2-4.797-2.709-5.516-3.811
				c-0.716-1.098-2.033-1.797-2.164-0.782C74.432,49.384,74.563,52.879,74.563,52.879z"/>
		</g>
		<g>
			<path fill="#A6A7B8" d="M65.306,52.879c0,0,0.195,1.521-3.63,3.695c-3.824,2.175-8.059,4.385-12.202,7.061
				c-1.951,1.206-4.742,3.232-11.173,2.026c-6.429-1.206-15.417-1.935-35.523-19.354c-1.486-1.301-3.095-2.73-2.723-3.238
				c0.369-0.506,0.938-0.016,2.173,1.014c1.236,1.025,17.419,12.363,25.937,15.593c2.302,0.89,3.91,1.145,4.171-0.294
				c0.263-1.439-0.913-3.18-2.527-3.979c-1.614-0.801-12.397-5.906-20.479-23.221c-1.185-2.815-2.122-8.551-1.077-9.018
				c0,0,0.398-0.285,0.718,1.09c0.32,1.374,1.068,5.414,2.706,8.152c1.64,2.738,9.567,16.571,19.066,18.814
				c1.453,0.104,3.105-0.006,4.07-2.99c0.964-2.985,1.976-5.804,2.805-8.531c0.829-2.727,0.638-9.148-0.821-12.584
				c-1.458-3.436-1.492-6.072-1.843-7.828c-0.349-1.756-0.698-2.822-0.489-2.938c0.208-0.113,0.284,0.039,0.444,0.469
				c0.159,0.431,1.334,3.641,2.221,5.448c0.889,1.811,4.2,7.386,4.329,13.685c0.13,6.302-4.087,12.169-4.368,16.744
				c-0.282,4.573,0.996,8.328,4.661,8.309s6.298-1.418,7.093-2.291c0.793-0.871,0.376-1.666-0.426-1.831s-3.636-0.903-3.636-0.903
				s-0.924-0.145-0.858-0.84c0.067-0.697,0.217-1.227,0.217-1.227s-0.053-0.561,1.235-0.146s2.405,0.6,3.246,0.721
				c1.608,0.231,2.609,0.49,3.479,0.451c0.872-0.039,3.4-0.777,5.527-1.977c2.125-1.2,4.797-2.709,5.515-3.811
				c0.717-1.098,2.033-1.797,2.164-0.782C65.437,49.384,65.306,52.879,65.306,52.879z"/>
		</g>
		<g>
			<path fill="#A6A7B8" d="M48.044,33.23c-0.688-0.973-1.031-2.377-1.031-4.215v-5.553c0-1.891,0.354-3.316,1.061-4.275
				c0.708-0.959,1.926-1.439,3.654-1.439c1.633,0,2.803,0.405,3.51,1.215c0.708,0.811,1.062,2.012,1.062,3.603v0.856h-2.878v-0.938
				c0-0.6-0.038-1.075-0.112-1.43c-0.075-0.354-0.232-0.625-0.47-0.816c-0.238-0.189-0.595-0.285-1.071-0.285
				c-0.503,0-0.877,0.123-1.123,0.367c-0.245,0.245-0.405,0.559-0.479,0.939c-0.075,0.381-0.113,0.877-0.113,1.489v6.921
				c0,0.938,0.125,1.639,0.377,2.102c0.252,0.463,0.725,0.693,1.419,0.693c0.68,0,1.153-0.244,1.418-0.734
				c0.266-0.49,0.398-1.225,0.398-2.205v-1.551h-1.776v-1.898h4.491v8.39h-1.96l-0.203-1.612c-0.519,1.225-1.45,1.837-2.797,1.837
				C49.858,34.69,48.731,34.204,48.044,33.23z"/>
			<path fill="#A6A7B8" d="M63.2,17.932h3.225l3.307,16.534h-2.796l-0.654-3.817h-2.877l-0.674,3.817h-2.838L63.2,17.932z
				 M65.956,28.73l-1.123-6.94l-1.123,6.94H65.956z"/>
			<path fill="#A6A7B8" d="M74.508,20.157h-2.755v-2.226h8.471v2.226H77.51v14.309h-3.002V20.157z"/>
			<path fill="#A6A7B8" d="M84.398,33.425c-0.742-0.843-1.146-2.103-1.215-3.776l2.592-0.51c0.041,1.047,0.207,1.847,0.5,2.398
				c0.293,0.551,0.752,0.826,1.379,0.826c0.461,0,0.805-0.14,1.03-0.418c0.225-0.279,0.337-0.656,0.337-1.133
				c0-0.654-0.146-1.205-0.439-1.654c-0.292-0.449-0.752-0.951-1.377-1.51l-2.082-1.816c-0.641-0.572-1.12-1.16-1.439-1.766
				c-0.32-0.605-0.48-1.352-0.48-2.236c0-1.306,0.381-2.313,1.145-3.021c0.762-0.707,1.816-1.062,3.164-1.062
				c1.414,0,2.428,0.405,3.041,1.215c0.611,0.811,0.965,1.902,1.061,3.276l-2.592,0.448c-0.041-0.883-0.16-1.558-0.357-2.021
				c-0.197-0.462-0.582-0.693-1.152-0.693c-0.464,0-0.828,0.142-1.093,0.429c-0.266,0.285-0.397,0.66-0.397,1.123
				c0,0.53,0.107,0.973,0.326,1.326c0.217,0.354,0.557,0.742,1.02,1.164l2.063,1.816c0.775,0.693,1.381,1.416,1.816,2.164
				s0.652,1.625,0.652,2.633c0,0.789-0.172,1.489-0.52,2.102c-0.347,0.612-0.834,1.093-1.459,1.439
				c-0.627,0.348-1.348,0.521-2.165,0.521C86.259,34.69,85.139,34.27,84.398,33.425z"/>
		</g>
		<g>
			<g>
				<path fill="#A6A7B8" d="M63.29,40.201h1.313v3.271h-0.626v-2.721H63.29V40.201z"/>
				<path fill="#A6A7B8" d="M66.397,42.933c0.125,0.036,0.25,0.054,0.374,0.054c0.292,0,0.513-0.098,0.658-0.291
					c0.147-0.195,0.217-0.463,0.211-0.803c-0.084,0.141-0.199,0.248-0.346,0.322c-0.146,0.075-0.318,0.113-0.515,0.113
					c-0.32,0-0.574-0.096-0.761-0.285c-0.187-0.19-0.28-0.445-0.28-0.768c0-0.223,0.047-0.418,0.142-0.583
					c0.095-0.165,0.23-0.293,0.405-0.384c0.175-0.09,0.378-0.135,0.612-0.135c0.277,0,0.517,0.063,0.718,0.191
					c0.201,0.127,0.354,0.312,0.462,0.551c0.107,0.24,0.162,0.525,0.162,0.855c0,0.346-0.059,0.648-0.175,0.911
					c-0.118,0.262-0.283,0.464-0.499,0.604C67.351,43.43,67.1,43.5,66.813,43.5c-0.165,0-0.337-0.022-0.516-0.07
					c-0.18-0.047-0.337-0.108-0.475-0.187l0.243-0.462C66.162,42.846,66.273,42.896,66.397,42.933z M66.481,40.855
					c-0.112,0.104-0.168,0.245-0.168,0.426c0,0.174,0.053,0.311,0.159,0.41s0.25,0.15,0.435,0.15c0.199,0,0.356-0.055,0.472-0.166
					c0.115-0.111,0.17-0.248,0.168-0.414c0.002-0.148-0.049-0.279-0.157-0.393c-0.107-0.111-0.262-0.168-0.464-0.168
					C66.741,40.701,66.593,40.752,66.481,40.855z"/>
				<path fill="#A6A7B8" d="M71.231,40.404c0.198,0.154,0.297,0.364,0.297,0.629c0,0.149-0.04,0.285-0.122,0.406
					c-0.082,0.122-0.194,0.217-0.336,0.285c0.193,0.072,0.345,0.181,0.456,0.327c0.11,0.146,0.165,0.315,0.165,0.505
					s-0.051,0.356-0.154,0.5c-0.103,0.143-0.25,0.253-0.442,0.329S70.68,43.5,70.425,43.5s-0.479-0.038-0.671-0.114
					c-0.191-0.076-0.338-0.185-0.441-0.324s-0.154-0.306-0.154-0.495c0-0.193,0.057-0.363,0.172-0.513
					c0.115-0.147,0.274-0.257,0.477-0.329c-0.153-0.074-0.272-0.175-0.357-0.299c-0.085-0.125-0.129-0.264-0.129-0.416
					c0-0.256,0.099-0.459,0.297-0.609c0.198-0.151,0.465-0.227,0.802-0.227C70.763,40.174,71.034,40.25,71.231,40.404z
					 M69.925,42.127c-0.118,0.087-0.177,0.21-0.177,0.369c0,0.162,0.059,0.287,0.177,0.379c0.118,0.09,0.285,0.135,0.5,0.135
					c0.211,0,0.378-0.044,0.498-0.133c0.12-0.089,0.179-0.215,0.179-0.377c0-0.158-0.06-0.282-0.179-0.371
					c-0.12-0.089-0.288-0.133-0.502-0.133C70.208,41.996,70.043,42.039,69.925,42.127z M70.002,40.738
					c-0.102,0.078-0.152,0.188-0.152,0.328c0,0.14,0.05,0.249,0.152,0.326c0.101,0.078,0.242,0.117,0.423,0.117
					s0.321-0.039,0.421-0.117c0.1-0.077,0.149-0.187,0.149-0.326c0-0.141-0.049-0.25-0.149-0.328c-0.1-0.078-0.24-0.116-0.421-0.116
					S70.103,40.66,70.002,40.738z"/>
				<path fill="#A6A7B8" d="M72.416,40.201h2.524v0.467l-1.348,2.805H72.93l1.303-2.725h-1.256l-0.006,0.463h-0.555V40.201z"/>
			</g>
		</g>
		<g>
			<path fill="#A6A7B8" d="M56.937,66.72c0.284,0.207,0.427,0.489,0.427,0.847c0,0.256-0.072,0.475-0.215,0.658
				c-0.143,0.183-0.34,0.306-0.592,0.367c0.309,0.057,0.551,0.189,0.725,0.396c0.174,0.208,0.261,0.466,0.261,0.774
				c0,0.396-0.153,0.71-0.46,0.936c-0.307,0.228-0.725,0.341-1.254,0.341h-2.117v-4.631h2.057
				C56.263,66.408,56.652,66.513,56.937,66.72z M56.261,68.148c0.13-0.101,0.195-0.242,0.195-0.424c0-0.176-0.065-0.313-0.195-0.41
				c-0.13-0.096-0.31-0.143-0.539-0.139h-1.125v1.125h1.125C55.952,68.301,56.131,68.25,56.261,68.148z M56.384,70.113
				c0.159-0.111,0.239-0.265,0.239-0.463c0-0.189-0.08-0.339-0.239-0.447c-0.159-0.107-0.379-0.159-0.661-0.154h-1.125v1.223h1.125
				C56.005,70.276,56.225,70.224,56.384,70.113z"/>
			<path fill="#A6A7B8" d="M62.49,71.039l-0.41-0.979h-2.262l-0.41,0.979h-0.919l2.031-4.631h0.919l2.004,4.631H62.49z M60.135,69.3
				h1.627l-0.807-1.944L60.135,69.3z"/>
			<path fill="#A6A7B8" d="M67.563,71.039l-0.801-1.369c-0.035,0.004-0.09,0.007-0.165,0.007h-1.045v1.362h-0.886v-4.631h1.932
				c0.6,0,1.062,0.14,1.389,0.418c0.327,0.277,0.49,0.67,0.49,1.177c0,0.362-0.079,0.671-0.235,0.927
				c-0.156,0.256-0.384,0.447-0.685,0.574l1.018,1.535H67.563z M65.552,68.896h1.045c0.335,0,0.591-0.074,0.767-0.219
				c0.177-0.146,0.265-0.361,0.265-0.648c0-0.281-0.087-0.493-0.265-0.635c-0.175-0.141-0.432-0.211-0.767-0.211h-1.045V68.896z"/>
			<path fill="#A6A7B8" d="M73.007,71.039l-0.8-1.369c-0.035,0.004-0.09,0.007-0.165,0.007h-1.045v1.362H70.11v-4.631h1.932
				c0.6,0,1.062,0.14,1.39,0.418c0.324,0.277,0.488,0.67,0.488,1.177c0,0.362-0.078,0.671-0.234,0.927s-0.385,0.447-0.685,0.574
				l1.019,1.535H73.007z M70.996,68.896h1.045c0.335,0,0.591-0.074,0.768-0.219c0.176-0.146,0.265-0.361,0.265-0.648
				c0-0.281-0.089-0.493-0.265-0.635c-0.176-0.141-0.433-0.211-0.768-0.211h-1.045V68.896z"/>
			<path fill="#A6A7B8" d="M78.91,66.66c0.378,0.207,0.674,0.492,0.891,0.854c0.216,0.361,0.324,0.764,0.324,1.204
				s-0.108,0.843-0.324,1.207c-0.217,0.363-0.513,0.651-0.891,0.862c-0.377,0.213-0.795,0.318-1.252,0.318
				c-0.459,0-0.877-0.105-1.254-0.318c-0.377-0.211-0.674-0.499-0.891-0.862c-0.216-0.364-0.323-0.767-0.323-1.207
				s0.107-0.843,0.323-1.204c0.217-0.361,0.514-0.646,0.891-0.854s0.795-0.312,1.254-0.312C78.115,66.349,78.533,66.453,78.91,66.66
				z M76.883,67.352c-0.242,0.139-0.434,0.328-0.574,0.568c-0.142,0.24-0.211,0.506-0.211,0.798c0,0.29,0.07,0.558,0.214,0.8
				s0.335,0.435,0.575,0.576c0.24,0.141,0.502,0.211,0.784,0.211c0.277,0,0.536-0.07,0.774-0.211
				c0.237-0.142,0.426-0.334,0.564-0.576c0.14-0.242,0.209-0.51,0.209-0.8c0-0.292-0.069-0.558-0.209-0.798
				c-0.139-0.24-0.327-0.43-0.564-0.568c-0.238-0.14-0.497-0.209-0.774-0.209C77.389,67.143,77.126,67.212,76.883,67.352z"/>
			<path fill="#A6A7B8" d="M84.795,66.408h0.86v4.631h-0.841l-2.381-3.188v3.188h-0.867v-4.631h0.84l2.389,3.195V66.408z"/>
		</g>
		<g>
			<path fill="#A6A7B8" d="M39.228,10.467l2.417-1.793l0.429,0.59l-1.741,1.291l0.702,0.945l1.586-1.177l0.435,0.587l-1.586,1.176
				l1.028,1.386l-0.67,0.497L39.228,10.467z"/>
			<path fill="#A6A7B8" d="M45.932,6.322c0.406-0.01,0.782,0.08,1.129,0.271c0.347,0.192,0.625,0.468,0.835,0.826
				c0.209,0.359,0.313,0.738,0.309,1.137c-0.003,0.398-0.108,0.773-0.314,1.124c-0.207,0.352-0.497,0.636-0.87,0.853
				c-0.373,0.218-0.763,0.33-1.17,0.337c-0.407,0.007-0.785-0.087-1.134-0.281c-0.348-0.194-0.626-0.47-0.836-0.829
				c-0.209-0.358-0.311-0.736-0.307-1.133c0.005-0.396,0.111-0.77,0.32-1.117c0.208-0.346,0.5-0.629,0.873-0.848
				C45.139,6.445,45.527,6.332,45.932,6.322z M44.61,7.846c-0.131,0.229-0.197,0.473-0.199,0.736
				c-0.001,0.262,0.068,0.512,0.206,0.748c0.137,0.237,0.323,0.42,0.554,0.55c0.232,0.13,0.479,0.194,0.742,0.195
				c0.262,0.001,0.508-0.065,0.738-0.199c0.227-0.132,0.403-0.312,0.53-0.539c0.126-0.228,0.189-0.474,0.188-0.737
				c-0.002-0.263-0.073-0.513-0.21-0.75c-0.139-0.236-0.321-0.42-0.548-0.549c-0.227-0.13-0.471-0.195-0.73-0.195
				c-0.26,0-0.502,0.066-0.729,0.197C44.923,7.437,44.742,7.617,44.61,7.846z"/>
			<path fill="#A6A7B8" d="M51.38,3.746c0.403,0.04,0.765,0.176,1.086,0.41c0.322,0.233,0.564,0.541,0.727,0.923
				s0.219,0.771,0.166,1.165c-0.053,0.395-0.203,0.754-0.451,1.077C52.66,7.644,52.337,7.891,51.94,8.06
				c-0.397,0.171-0.798,0.233-1.203,0.19c-0.405-0.045-0.769-0.184-1.091-0.42c-0.321-0.234-0.564-0.543-0.727-0.925
				s-0.218-0.77-0.166-1.163c0.054-0.393,0.206-0.748,0.456-1.068c0.249-0.318,0.573-0.563,0.97-0.732
				C50.577,3.771,50.977,3.707,51.38,3.746z M49.88,5.095c-0.159,0.211-0.254,0.446-0.288,0.706
				c-0.034,0.261,0.004,0.518,0.112,0.77c0.107,0.252,0.268,0.457,0.482,0.613c0.214,0.157,0.451,0.252,0.711,0.285
				s0.512-0.002,0.757-0.107c0.241-0.102,0.438-0.258,0.592-0.469c0.155-0.211,0.247-0.447,0.277-0.708
				c0.03-0.262-0.008-0.519-0.115-0.771c-0.108-0.252-0.267-0.457-0.477-0.613c-0.209-0.156-0.443-0.251-0.7-0.283
				c-0.258-0.033-0.507,0.004-0.748,0.105C50.241,4.729,50.039,4.886,49.88,5.095z"/>
			<path fill="#A6A7B8" d="M57.082,1.914c0.382,0.082,0.713,0.256,0.993,0.522c0.278,0.267,0.476,0.601,0.592,1.003
				c0.115,0.404,0.124,0.791,0.025,1.162c-0.098,0.373-0.29,0.696-0.574,0.973c-0.284,0.275-0.639,0.475-1.066,0.598l-1.713,0.49
				L54.137,2.47l1.743-0.499C56.299,1.85,56.7,1.832,57.082,1.914z M57.538,5.076c0.171-0.178,0.286-0.387,0.341-0.629
				c0.056-0.244,0.045-0.498-0.032-0.766c-0.076-0.268-0.205-0.492-0.386-0.671s-0.394-0.298-0.636-0.355
				c-0.244-0.058-0.496-0.049-0.755,0.025l-0.928,0.267l0.796,2.777l0.958-0.273C57.152,5.377,57.366,5.252,57.538,5.076z"/>
			<path fill="#A6A7B8" d="M64.909,1.104c-0.22-0.075-0.438-0.102-0.652-0.076c-0.268,0.031-0.506,0.123-0.715,0.277
				c-0.208,0.152-0.363,0.35-0.465,0.59c-0.102,0.239-0.138,0.493-0.106,0.761c0.031,0.269,0.123,0.509,0.277,0.718
				c0.153,0.211,0.349,0.367,0.587,0.472c0.237,0.104,0.49,0.142,0.759,0.11c0.206-0.023,0.409-0.092,0.606-0.207
				c0.198-0.115,0.368-0.262,0.511-0.441l0.551,0.488c-0.201,0.258-0.443,0.471-0.729,0.639C65.247,4.603,64.95,4.705,64.64,4.74
				c-0.417,0.048-0.81-0.008-1.18-0.166c-0.371-0.158-0.673-0.396-0.91-0.713c-0.237-0.318-0.38-0.684-0.427-1.096
				c-0.048-0.412,0.01-0.799,0.174-1.162c0.164-0.36,0.408-0.658,0.734-0.893c0.326-0.234,0.702-0.375,1.127-0.424
				c0.309-0.037,0.62-0.009,0.931,0.08c0.312,0.09,0.584,0.232,0.82,0.427l-0.413,0.661C65.324,1.296,65.127,1.178,64.909,1.104z"/>
			<path fill="#A6A7B8" d="M70.74,0.295C71.095,0.49,71.373,0.76,71.576,1.1c0.203,0.342,0.303,0.72,0.303,1.135
				c-0.001,0.416-0.104,0.795-0.308,1.137c-0.205,0.342-0.484,0.612-0.84,0.812c-0.355,0.198-0.749,0.297-1.181,0.296
				c-0.432,0-0.825-0.102-1.18-0.301c-0.355-0.201-0.634-0.473-0.837-0.815C67.331,3.02,67.23,2.641,67.23,2.225
				c0.001-0.415,0.104-0.793,0.308-1.133s0.484-0.607,0.839-0.803C68.733,0.095,69.127-0.002,69.559,0
				C69.991,0,70.385,0.099,70.74,0.295z M68.829,0.941c-0.229,0.131-0.41,0.309-0.543,0.535c-0.133,0.226-0.2,0.477-0.201,0.75
				c0,0.274,0.066,0.525,0.201,0.754c0.134,0.229,0.314,0.41,0.541,0.543c0.226,0.135,0.472,0.201,0.737,0.201
				c0.263,0.001,0.505-0.065,0.73-0.197c0.225-0.133,0.402-0.313,0.533-0.541c0.132-0.229,0.198-0.479,0.198-0.754
				c0-0.273-0.064-0.523-0.194-0.751c-0.131-0.226-0.309-0.405-0.532-0.536c-0.224-0.132-0.466-0.197-0.729-0.198
				C69.304,0.746,69.057,0.812,68.829,0.941z"/>
			<path fill="#A6A7B8" d="M73.833,0.185l0.944,0.129l1.053,2.979l1.799-2.59l0.945,0.129l-0.59,4.32l-0.76-0.104l0.424-3.099
				l-1.709,2.471l-0.531-0.073L74.42,1.51l-0.424,3.099l-0.753-0.103L73.833,0.185z"/>
			<path fill="#A6A7B8" d="M83.622,2.501c0.223,0.33,0.272,0.726,0.147,1.188c-0.129,0.481-0.375,0.817-0.736,1.005
				c-0.363,0.189-0.809,0.212-1.338,0.07l-0.922-0.248l-0.332,1.24l-0.807-0.218l1.131-4.211l1.728,0.464
				C83.023,1.934,83.398,2.17,83.622,2.501z M82.598,4.031C82.795,3.943,82.93,3.769,83,3.508c0.068-0.258,0.039-0.471-0.088-0.644
				c-0.129-0.172-0.345-0.298-0.65-0.381l-0.878-0.235l-0.419,1.558l0.879,0.236C82.148,4.123,82.4,4.12,82.598,4.031z"/>
			<path fill="#A6A7B8" d="M87.01,7.943l-0.026-1l-1.987-0.77l-0.693,0.721l-0.807-0.313l3.358-3.377l0.808,0.313l0.185,4.748
				L87.01,7.943z M85.534,5.613l1.429,0.555l-0.047-1.982L85.534,5.613z"/>
			<path fill="#A6A7B8" d="M93.633,6.364l0.713,0.382l-2.056,3.846l-0.698-0.373L91.03,6.514L89.614,9.16l-0.72-0.384l2.057-3.847
				l0.697,0.373l0.564,3.715L93.633,6.364z"/>
			<path fill="#A6A7B8" d="M99.09,9.905l-2.977,1.51l-0.813,1.173l-0.686-0.475l0.793-1.148l0.35-3.363l0.697,0.482l-0.188,2.361
				l2.13-1.02L99.09,9.905z"/>
		</g>
	</g>
</g>
</svg>
