<?xml version="1.0" encoding="utf-8"?>
<!-- Generator: Adobe Illustrator 13.0.0, SVG Export Plug-In . SVG Version: 6.00 Build 14948)  -->
<!DOCTYPE svg PUBLIC "-//W3C//DTD SVG 1.1//EN" "http://www.w3.org/Graphics/SVG/1.1/DTD/svg11.dtd">
<svg version="1.1" id="Layer_1" xmlns="http://www.w3.org/2000/svg" xmlns:xlink="http://www.w3.org/1999/xlink" x="0px" y="0px"
	 width="22.84px" height="28.733px" viewBox="0 0 22.84 28.733" enable-background="new 0 0 22.84 28.733" xml:space="preserve">
<g>
	<polygon fill="#FFE600" points="19.859,23.458 18.786,23.458 4.056,23.458 2.981,23.458 2.981,22.383 2.981,2.15 2.981,1.076 
		4.056,1.076 18.786,1.076 19.859,1.076 19.859,2.15 19.859,22.383 19.859,23.458 	"/>
	<path fill="#2B555F" d="M21.767,2.15c0.591,0,1.074-0.483,1.074-1.074V1.075C22.841,0.484,22.357,0,21.767,0H1.075
		C0.483,0,0,0.484,0,1.075v0.001C0,1.667,0.483,2.15,1.075,2.15h0.831v20.232h-0.83C0.483,22.383,0,22.867,0,23.459
		c0,0.59,0.483,1.074,1.075,1.074h9.284c-0.005,0.045-0.014,0.09-0.014,0.137v2.988c0,0.592,0.484,1.075,1.075,1.075
		c0.593,0,1.075-0.483,1.075-1.075V24.67c0-0.047-0.008-0.092-0.014-0.137h9.285c0.591,0,1.074-0.484,1.074-1.074
		c0-0.592-0.483-1.076-1.074-1.076h-0.832V2.15H21.767z M18.786,22.383H4.056V2.15h14.73V22.383z"/>
</g>
</svg>
