<?xml version="1.0" encoding="utf-8"?>
<!-- Generator: Adobe Illustrator 13.0.0, SVG Export Plug-In . SVG Version: 6.00 Build 14948)  -->
<!DOCTYPE svg PUBLIC "-//W3C//DTD SVG 1.1//EN" "http://www.w3.org/Graphics/SVG/1.1/DTD/svg11.dtd">
<svg version="1.1" id="Layer_1" xmlns="http://www.w3.org/2000/svg" xmlns:xlink="http://www.w3.org/1999/xlink" x="0px" y="0px"
	 width="26.76px" height="26.758px" viewBox="0 0 26.76 26.758" enable-background="new 0 0 26.76 26.758" xml:space="preserve">
<g>
	<path fill="#FFE600" d="M23.531,25.835L23.531,25.835h-0.002H3.23c-1.271-0.002-2.305-1.036-2.308-2.305L0.924,9.837
		c0.007-1.269,1.041-2.299,2.305-2.302h20.301c1.27,0.003,2.305,1.037,2.307,2.307v13.687
		C25.834,24.799,24.799,25.833,23.531,25.835L23.531,25.835z"/>
	<g>
		<path fill="#2B555F" d="M23.529,0H3.23C1.447,0.004,0.004,1.448,0,3.229v20.299c0.004,1.783,1.447,3.227,3.23,3.229h20.299
			c1.783-0.003,3.227-1.446,3.229-3.229h0.002V3.229C26.756,1.448,25.313,0.004,23.529,0z M24.913,23.528
			c-0.002,0.756-0.629,1.383-1.384,1.385H3.23c-0.755-0.002-1.383-0.629-1.385-1.385V9.837C1.85,9.085,2.477,8.46,3.23,8.458h20.299
			c0.755,0.002,1.382,0.63,1.384,1.386V23.528z M24.913,6.931c-0.42-0.2-0.888-0.316-1.384-0.317H3.23
			C2.734,6.614,2.266,6.73,1.846,6.931l0.001-3.701C1.848,2.475,2.476,1.848,3.23,1.846h20.299c0.755,0.002,1.382,0.629,1.384,1.384
			V6.931z"/>
		<path fill="#2B555F" d="M17.514,2.152c-1.146,0.001-2.075,0.93-2.077,2.076c0.002,1.146,0.931,2.075,2.077,2.077
			c1.146-0.002,2.076-0.931,2.076-2.077S18.66,2.153,17.514,2.152z M17.515,5.112c-0.489-0.003-0.882-0.397-0.886-0.883
			c0.004-0.489,0.396-0.882,0.886-0.885C18,3.348,18.394,3.74,18.398,4.229C18.394,4.715,18,5.109,17.515,5.112z"/>
		<path fill="#2B555F" d="M22.089,2.152c-1.147,0.001-2.075,0.93-2.077,2.076c0.002,1.146,0.93,2.075,2.077,2.077
			c1.146-0.002,2.074-0.931,2.075-2.077C24.163,3.082,23.234,2.153,22.089,2.152z M22.09,5.112
			c-0.489-0.003-0.883-0.397-0.885-0.883c0.002-0.489,0.396-0.882,0.885-0.885c0.486,0.003,0.879,0.396,0.884,0.885
			C22.969,4.715,22.576,5.109,22.09,5.112z"/>
	</g>
</g>
</svg>
