<?xml version="1.0" encoding="utf-8"?>
<!-- Generator: Adobe Illustrator 13.0.0, SVG Export Plug-In . SVG Version: 6.00 Build 14948)  -->
<!DOCTYPE svg PUBLIC "-//W3C//DTD SVG 1.1//EN" "http://www.w3.org/Graphics/SVG/1.1/DTD/svg11.dtd">
<svg version="1.1" id="Layer_1" xmlns="http://www.w3.org/2000/svg" xmlns:xlink="http://www.w3.org/1999/xlink" x="0px" y="0px"
	 width="17.259px" height="28.616px" viewBox="0 0 17.259 28.616" enable-background="new 0 0 17.259 28.616" xml:space="preserve">
<g>
	<path fill="#FFE600" d="M14.031,22.958H3.229c-1.27,0-2.305-1.034-2.307-2.304V5.987C0.925,4.717,1.958,3.682,3.229,3.68h10.801
		c1.27,0.002,2.303,1.036,2.307,2.306v14.667C16.333,21.926,15.3,22.958,14.031,22.958L14.031,22.958z"/>
	<path fill="#2B555F" d="M14.031,0H3.229C1.447,0.004,0.003,1.447,0.001,3.229L0,11.384v9.269v0.004v4.731
		c0.003,1.781,1.447,3.226,3.229,3.229h10.801c1.781-0.003,3.225-1.447,3.229-3.229l0,0V3.229C17.255,1.447,15.812,0.004,14.031,0z
		 M3.229,1.846h10.801c0.699,0.002,1.281,0.542,1.365,1.222c-0.414-0.195-0.877-0.309-1.365-0.309L3.229,2.758
		C2.74,2.759,2.278,2.871,1.862,3.067C1.946,2.388,2.53,1.848,3.229,1.846z M15.414,25.388c0,0.755-0.629,1.383-1.383,1.384H3.229
		c-0.755-0.001-1.383-0.629-1.385-1.384v-1.823c0.42,0.2,0.889,0.316,1.385,0.316h10.801c0.496,0,0.963-0.116,1.383-0.316V25.388z
		 M15.414,20.652c0,0.755-0.629,1.383-1.383,1.384H3.229c-0.755-0.001-1.383-0.629-1.385-1.384V5.987
		c0.002-0.755,0.63-1.383,1.385-1.384h10.801c0.754,0.001,1.383,0.629,1.383,1.384V20.652z M10.419,24.351H6.841
		c-0.254,0-0.463,0.207-0.463,0.461v0.924c0,0.254,0.209,0.462,0.463,0.462h3.579c0.254,0,0.461-0.208,0.461-0.462v-0.924
		C10.88,24.558,10.673,24.351,10.419,24.351z"/>
</g>
</svg>
