<?xml version="1.0" encoding="utf-8"?>
<!-- Generator: Adobe Illustrator 13.0.0, SVG Export Plug-In . SVG Version: 6.00 Build 14948)  -->
<!DOCTYPE svg PUBLIC "-//W3C//DTD SVG 1.1//EN" "http://www.w3.org/Graphics/SVG/1.1/DTD/svg11.dtd">
<svg version="1.1" id="Layer_1" xmlns="http://www.w3.org/2000/svg" xmlns:xlink="http://www.w3.org/1999/xlink" x="0px" y="0px"
	 width="30px" height="30px" viewBox="0 0 30 30" enable-background="new 0 0 30 30" xml:space="preserve">
<path fill-rule="evenodd" clip-rule="evenodd" fill="#1E1E1E" d="M29.696,11.98c-0.196-0.964-0.49-1.913-0.874-2.82
	c-0.377-0.891-0.842-1.748-1.386-2.549c-0.533-0.794-1.15-1.539-1.828-2.215c-0.68-0.681-1.424-1.298-2.218-1.832
	c-0.802-0.544-1.659-1.011-2.55-1.387c-0.904-0.381-1.855-0.675-2.819-0.872C17.033,0.103,16.017,0,15.002,0
	c-1.019,0-2.033,0.103-3.024,0.306c-0.96,0.196-1.911,0.491-2.815,0.872c-0.891,0.376-1.75,0.843-2.549,1.387
	C5.819,3.099,5.071,3.716,4.391,4.397C3.717,5.073,3.099,5.818,2.563,6.612C2.021,7.413,1.554,8.27,1.182,9.161
	c-0.384,0.907-0.682,1.856-0.879,2.82C0.103,12.969,0,13.986,0,15c0,1.018,0.103,2.036,0.303,3.019
	c0.197,0.966,0.495,1.916,0.879,2.821c0.372,0.891,0.839,1.747,1.381,2.552c0.536,0.79,1.154,1.537,1.828,2.215
	c0.68,0.68,1.428,1.295,2.222,1.828c0.8,0.544,1.658,1.011,2.549,1.388c0.904,0.382,1.855,0.674,2.815,0.871
	C12.969,29.9,13.983,30,15.002,30c1.015,0,2.031-0.1,3.02-0.307c0.964-0.197,1.915-0.489,2.819-0.871
	c0.891-0.377,1.748-0.844,2.55-1.388c0.794-0.533,1.538-1.148,2.218-1.828c0.678-0.678,1.295-1.425,1.828-2.215
	c0.544-0.805,1.009-1.661,1.386-2.552c0.384-0.905,0.678-1.855,0.874-2.821C29.899,17.036,30,16.017,30,15
	C30,13.986,29.899,12.969,29.696,11.98z M27.808,14.87c-0.187-0.038-4.521-0.971-8.923-0.418c-0.09-0.219-0.183-0.44-0.275-0.659
	c-0.269-0.628-0.555-1.249-0.852-1.858c5.06-2.066,7.11-5.036,7.138-5.073C26.69,9.043,27.777,11.834,27.808,14.87z M23.463,5.388
	c-0.033,0.05-1.858,2.827-6.693,4.637c-2.189-4.022-4.595-7.219-4.788-7.473c0.971-0.234,1.979-0.36,3.02-0.36
	C18.245,2.191,21.205,3.399,23.463,5.388z M11.933,2.562v0.003c0,0-0.018,0.004-0.041,0.007C11.892,2.572,11.919,2.569,11.933,2.562
	z M9.537,3.416c0.166,0.227,2.538,3.44,4.754,7.38c-6.15,1.634-11.489,1.569-11.829,1.565C3.296,8.394,5.962,5.104,9.537,3.416z
	 M2.189,15c0-0.137,0.006-0.271,0.01-0.404c0.227,0.003,6.56,0.147,13.153-1.825c0.368,0.717,0.721,1.448,1.041,2.179
	c-0.169,0.043-0.337,0.098-0.507,0.15c-6.914,2.233-10.417,8.455-10.417,8.455l0.002,0.006C3.434,21.289,2.189,18.29,2.189,15z
	 M15.002,27.811c-3.1,0-5.946-1.104-8.162-2.936c0.167,0.137,0.288,0.224,0.288,0.224s2.455-5.355,10.053-8.005
	c0.029-0.01,0.057-0.02,0.083-0.023c1.806,4.683,2.549,8.604,2.736,9.728C18.465,27.448,16.777,27.811,15.002,27.811z
	 M22.159,25.622c-0.13-0.77-0.813-4.53-2.493-9.147c4.134-0.66,7.718,0.475,7.985,0.562C27.08,20.605,25.039,23.685,22.159,25.622z"
	/>
</svg>
