<?xml version="1.0" encoding="utf-8"?>
<!-- Generator: Adobe Illustrator 13.0.0, SVG Export Plug-In . SVG Version: 6.00 Build 14948)  -->
<!DOCTYPE svg PUBLIC "-//W3C//DTD SVG 1.1//EN" "http://www.w3.org/Graphics/SVG/1.1/DTD/svg11.dtd">
<svg version="1.1" id="Layer_1" xmlns="http://www.w3.org/2000/svg" xmlns:xlink="http://www.w3.org/1999/xlink" x="0px" y="0px"
	 width="30.001px" height="25px" viewBox="0 0 30.001 25" enable-background="new 0 0 30.001 25" xml:space="preserve">
<path fill="#1E1E1E" d="M30.001,2.96c-1.103,0.501-2.287,0.841-3.533,0.992c1.269-0.779,2.247-2.014,2.706-3.492
	c-1.188,0.725-2.51,1.251-3.907,1.536C24.144,0.766,22.543,0,20.771,0c-3.398,0-6.155,2.826-6.155,6.311
	c0,0.495,0.059,0.975,0.162,1.439C9.662,7.49,5.129,4.975,2.09,1.153C1.561,2.085,1.257,3.173,1.257,4.33
	c0,2.188,1.088,4.116,2.739,5.254C2.987,9.55,2.037,9.265,1.206,8.79c0,0.027,0,0.055,0,0.083c0,3.054,2.124,5.607,4.939,6.188
	c-0.518,0.143-1.061,0.219-1.624,0.219c-0.395,0-0.78-0.037-1.155-0.112c0.78,2.509,3.053,4.333,5.746,4.384
	c-2.105,1.693-4.759,2.702-7.641,2.702c-0.499,0-0.989-0.03-1.471-0.089C2.727,23.953,5.961,25,9.437,25
	C20.759,25,26.95,15.383,26.95,7.042c0-0.271-0.007-0.546-0.02-0.817C28.132,5.336,29.178,4.224,30.001,2.96z"/>
</svg>
