<?xml version="1.0" encoding="utf-8"?>
<!-- Generator: Adobe Illustrator 13.0.0, SVG Export Plug-In . SVG Version: 6.00 Build 14948)  -->
<!DOCTYPE svg PUBLIC "-//W3C//DTD SVG 1.1//EN" "http://www.w3.org/Graphics/SVG/1.1/DTD/svg11.dtd">
<svg version="1.1" id="Layer_1" xmlns="http://www.w3.org/2000/svg" xmlns:xlink="http://www.w3.org/1999/xlink" x="0px" y="0px"
	 width="90px" height="52px" viewBox="0 0 90 52" enable-background="new 0 0 90 52" xml:space="preserve">
<path fill="#FFFFFF" d="M38.866,0H22.48L0,38.087L8.213,52h16.269l6.193-10.491L36.867,52h16.268l6.193-10.492L65.521,52h16.265
	L90,38.083L67.52,0H51.133l-6.132,10.391L38.866,0z M55.227,3.444H65.51l19.415,32.888H74.641L55.227,3.444z M26.572,3.444h10.285
	l19.417,32.888H45.986L26.572,3.444z M22.472,48.557H12.189l11.322-19.183l5.142,8.711L22.472,48.557z M4.041,38.087l19.47-32.981
	l19.47,32.979l-5.144,8.711L23.511,22.528L9.186,46.798L4.041,38.087z M51.126,48.557H40.844l5.18-8.781h10.283L51.126,48.557z
	 M66.49,46.796L47.021,13.814l5.143-8.712l19.468,32.98L66.49,46.796z M79.777,48.557H69.494l5.182-8.781H84.96L79.777,48.557z"/>
</svg>
